<svg width="10" height="11" viewBox="0 0 10 11" fill="none" xmlns="http://www.w3.org/2000/svg">
<path d="M3.42936 9.46879V9.19039H1.28602C0.945088 9.18995 0.61825 9.05782 0.377176 8.82297C0.136101 8.58811 0.000466004 8.26972 1.23363e-05 7.93759V7.72489C-0.00110795 7.46 0.0740943 7.20013 0.217067 6.97482C0.360039 6.74951 0.565044 6.5678 0.808767 6.45037C0.917755 6.39727 1.01096 6.31786 1.0795 6.2197C1.14804 6.12155 1.18962 6.00792 1.20028 5.88967L1.4552 3.15577C1.53475 2.2937 1.9425 1.49182 2.59828 0.90783C3.25405 0.323839 4.11038 0 4.99886 0C5.88734 0 6.74367 0.323839 7.39945 0.90783C8.05522 1.49182 8.46297 2.2937 8.54252 3.15577L8.79744 5.88967C8.80898 6.0076 8.85098 6.12078 8.91955 6.21863C8.98811 6.31648 9.08099 6.39582 9.18952 6.44925C9.43344 6.56676 9.63867 6.74851 9.78193 6.97389C9.92519 7.19926 10.0007 7.45924 10 7.72433V7.93703C9.99969 8.2692 9.86411 8.58769 9.623 8.82257C9.38189 9.05745 9.05497 9.18954 8.71399 9.18984H6.57293V9.46879C6.57293 9.87489 6.40733 10.2644 6.11257 10.5515C5.8178 10.8387 5.41801 11 5.00115 11C4.58428 11 4.18449 10.8387 3.88973 10.5515C3.59496 10.2644 3.42936 9.87489 3.42936 9.46879ZM4.2867 9.46879C4.2867 9.65338 4.36197 9.83042 4.49596 9.96094C4.62994 10.0915 4.81166 10.1648 5.00115 10.1648C5.19063 10.1648 5.37235 10.0915 5.50634 9.96094C5.64032 9.83042 5.71559 9.65338 5.71559 9.46879V9.19039H4.2867V9.46879ZM2.31197 3.23261L2.05762 5.96539C2.03403 6.22556 1.94221 6.47546 1.79099 6.69113C1.63976 6.9068 1.43419 7.08101 1.194 7.19704C1.09275 7.2456 1.00752 7.32087 0.948006 7.41428C0.888492 7.50769 0.857083 7.6155 0.85735 7.72544V7.93814C0.857652 8.04876 0.90293 8.15475 0.983272 8.23291C1.06361 8.31107 1.17247 8.35504 1.28602 8.35519H8.71628C8.82992 8.35504 8.93887 8.311 9.01922 8.23271C9.09958 8.15443 9.14479 8.0483 9.14494 7.93759V7.72489C9.14533 7.6152 9.11415 7.50761 9.05495 7.41431C8.99575 7.32101 8.9109 7.24574 8.81001 7.19704C8.56953 7.08118 8.36365 6.90706 8.21211 6.69139C8.06058 6.47571 7.96849 6.22572 7.94467 5.96539L7.6909 3.23261C7.62975 2.5789 7.31995 1.97107 6.82234 1.52847C6.32473 1.08588 5.67525 0.840489 5.00143 0.840489C4.32762 0.840489 3.67814 1.08588 3.18053 1.52847C2.68292 1.97107 2.37312 2.5789 2.31197 3.23261Z" fill="black"/>
</svg>
