<svg width="10" height="10" viewBox="0 0 10 10" fill="none" xmlns="http://www.w3.org/2000/svg">
<path d="M8.18182 9.09091V10H1.81818V9.09091H8.18182ZM9.09091 8.18182V1.81818C9.09091 1.3161 8.6839 0.909091 8.18182 0.909091H1.81818C1.3161 0.909091 0.909091 1.3161 0.909091 1.81818V8.18182C0.909091 8.6839 1.3161 9.09091 1.81818 9.09091V10C0.814028 10 0 9.18597 0 8.18182V1.81818C0 0.814028 0.814028 0 1.81818 0H8.18182C9.18597 0 10 0.814028 10 1.81818V8.18182C10 9.18597 9.18597 10 8.18182 10V9.09091C8.6839 9.09091 9.09091 8.6839 9.09091 8.18182ZM5.45721 2.27539V4.54545H7.72727V5.45455H5.45721V7.72994H4.54812V5.45455H2.27273V4.54545H4.54812V2.27539H5.45721Z" fill="black"/>
</svg>
