<svg width="6" height="6" viewBox="0 0 6 6" fill="none" xmlns="http://www.w3.org/2000/svg">
<path d="M0.146447 0.146447C0.341709 -0.0488149 0.658216 -0.0488149 0.853478 0.146447L5.85348 5.14645C6.04874 5.34171 6.04874 5.65822 5.85348 5.85348C5.65822 6.04874 5.34171 6.04874 5.14645 5.85348L0.146447 0.853479C-0.0488155 0.658216 -0.0488155 0.341709 0.146447 0.146447Z" fill="#7F8287"/>
<path d="M0.146447 5.85348C-0.0488155 5.65822 -0.0488155 5.34171 0.146447 5.14645L5.14645 0.146447C5.34171 -0.0488156 5.65822 -0.0488156 5.85348 0.146447C6.04874 0.341709 6.04874 0.658216 5.85348 0.853478L0.853478 5.85348C0.658216 6.04874 0.341709 6.04874 0.146447 5.85348Z" fill="#7F8287"/>
</svg>
