<svg width="10" height="11" viewBox="0 0 10 11" fill="none" xmlns="http://www.w3.org/2000/svg">
<path d="M6 6.59527C5.99999 6.50619 5.93007 6.4444 5.85693 6.4444H4.14307C4.06994 6.4444 4.00001 6.5062 4 6.59527V10H6V6.59527ZM7 10H8.21436C8.64252 9.99997 9 9.64676 9 9.19827V4.5909C9 4.35462 8.89777 4.1316 8.72314 3.98007L5.50928 1.19105C5.21578 0.936385 4.78422 0.936385 4.49072 1.19105L1.27686 3.98007C1.10222 4.13161 1 4.35463 1 4.5909V9.19827C1 9.64676 1.3575 9.99997 1.78564 10H3V6.59527C3.00001 5.96551 3.50613 5.44441 4.14307 5.44441H5.85693C6.49389 5.44441 6.99999 5.96552 7 6.59527V10ZM10 9.19827C10 10.1874 9.20633 11 8.21436 11H1.78564C0.793692 11 0 10.1874 0 9.19827V4.5909C0 4.06719 0.225795 3.56772 0.621094 3.22471L3.83545 0.435686C4.50495 -0.145228 5.49505 -0.145229 6.16455 0.435686L9.37891 3.22471C9.77423 3.56773 10 4.06721 10 4.5909V9.19827Z" fill="black"/>
</svg>
