<svg width="12" height="12" viewBox="0 0 12 12" fill="none" xmlns="http://www.w3.org/2000/svg">
<path d="M10.6446 5.868C10.6446 3.22977 8.50621 1.09091 5.868 1.09083C3.22972 1.09083 1.09083 3.22972 1.09083 5.868C1.0909 8.50621 3.22977 10.6446 5.868 10.6446C6.61239 10.6446 7.14501 10.5157 7.48028 10.3954C7.64844 10.335 7.76825 10.2761 7.8414 10.2361C7.8779 10.2162 7.903 10.2011 7.9165 10.1924C7.92 10.1902 7.92254 10.1879 7.92449 10.1866V10.1871L7.92343 10.1876L7.9229 10.1882C8.10881 10.0507 8.35293 10.0496 8.53755 10.1658C8.58078 10.1692 8.62453 10.1776 8.66751 10.1919L10.8007 10.903C10.8218 10.91 10.8357 10.9087 10.8454 10.9062C10.8573 10.9031 10.8714 10.8962 10.8838 10.8838C10.8962 10.8714 10.9031 10.8573 10.9062 10.8454C10.9087 10.8357 10.91 10.8218 10.903 10.8007L10.1919 8.66752C10.1777 8.62488 10.1693 8.5815 10.1658 8.53862C10.0526 8.35924 10.0497 8.12218 10.1781 7.93675C10.1797 7.93417 10.182 7.9304 10.185 7.92556C10.1946 7.90975 10.2111 7.8821 10.2319 7.84247C10.2735 7.76313 10.3332 7.6364 10.3943 7.46324C10.5163 7.11762 10.6446 6.58395 10.6446 5.868ZM3.36943 5.32259C3.67065 5.32259 3.91484 5.56678 3.91484 5.868C3.91477 6.16917 3.67061 6.41342 3.36943 6.41342H3.36304C3.06192 6.41334 2.8177 6.16912 2.81762 5.868C2.81762 5.56683 3.06188 5.32267 3.36304 5.32259H3.36943ZM5.87386 5.32259C6.17509 5.32259 6.41928 5.56678 6.41928 5.868C6.4192 6.16917 6.17504 6.41342 5.87386 6.41342H5.868C5.56682 6.41342 5.32266 6.16917 5.32259 5.868C5.32259 5.56678 5.56678 5.32259 5.868 5.32259H5.87386ZM8.37883 5.32259C8.68004 5.3226 8.92424 5.56679 8.92424 5.868C8.92417 6.16916 8.68 6.41341 8.37883 6.41342H8.37244C8.07131 6.41336 7.8271 6.16913 7.82702 5.868C7.82702 5.56682 8.07126 5.32265 8.37244 5.32259H8.37883ZM11.7355 5.868C11.7355 6.71725 11.5826 7.37326 11.4228 7.82596C11.3522 8.02617 11.2799 8.18596 11.2199 8.3048C11.2221 8.31066 11.2248 8.31639 11.2268 8.32237L11.9379 10.4561C12.2431 11.3719 11.372 12.2431 10.4561 11.9379L8.32237 11.2268C8.318 11.2254 8.3139 11.223 8.30959 11.2215C8.19405 11.2815 8.04111 11.3527 7.84886 11.4218C7.39907 11.5832 6.7419 11.7355 5.868 11.7355C2.62732 11.7355 7.44929e-05 9.10866 0 5.868C0 2.62727 2.62727 0 5.868 0C9.10866 7.59005e-05 11.7355 2.62732 11.7355 5.868Z" fill="black"/>
</svg>
