<svg width="7" height="7" viewBox="0 0 7 7" fill="none" xmlns="http://www.w3.org/2000/svg">
<path d="M5.37603 2.96802C5.37603 1.63811 4.29793 0.560003 2.96802 0.560003C1.63811 0.560003 0.560003 1.63811 0.560003 2.96802C0.560003 4.29793 1.63811 5.37603 2.96802 5.37603C4.29793 5.37603 5.37603 4.29793 5.37603 2.96802ZM5.93604 2.96802C5.93604 4.60721 4.60721 5.93604 2.96802 5.93604C1.32883 5.93604 0 4.60721 0 2.96802C0 1.32883 1.32883 0 2.96802 0C4.60721 0 5.93604 1.32883 5.93604 2.96802Z" fill="#62625A"/>
<path d="M4.61804 4.78604C4.72739 4.67669 4.90463 4.67669 5.01398 4.78604L6.74999 6.52205C6.85934 6.6314 6.85934 6.80864 6.74999 6.91799C6.64064 7.02734 6.4634 7.02734 6.35405 6.91799L4.61804 5.18198C4.50869 5.07263 4.50869 4.89539 4.61804 4.78604Z" fill="#62625A"/>
</svg>
