<svg width="11" height="9" viewBox="0 0 11 9" fill="none" xmlns="http://www.w3.org/2000/svg">
<g opacity="0.5">
<path d="M9.23398 0.000164975C10.5942 -0.017095 11.4485 1.32346 10.7519 2.38195L6.9027 8.23103C6.12784 9.40845 4.17753 9.18954 3.74333 7.8764L2.84209 5.15074C2.80139 5.02765 2.7295 4.91485 2.63217 4.82136L0.477141 2.75148C-0.561083 1.75426 0.204806 0.114702 1.71781 0.0955032L9.23398 0.000164975ZM10.0406 1.99779C10.4055 1.44334 9.95804 0.741265 9.24557 0.750306L1.72941 0.845644C0.936876 0.855701 0.535662 1.71446 1.07949 2.23681L3.23452 4.30669C3.42033 4.48517 3.55757 4.7005 3.63527 4.93551L4.53651 7.66117C4.76395 8.349 5.78551 8.46361 6.19138 7.84686L10.0406 1.99779Z" fill="black"/>
<path d="M6.8855 2.38329C7.08352 2.27972 7.33673 2.34118 7.45105 2.52057C7.56538 2.69996 7.49753 2.92934 7.29951 3.03291L3.28379 5.13325L2.86977 4.48363L6.8855 2.38329Z" fill="black"/>
</g>
</svg>
