<svg width="11" height="11" viewBox="0 0 11 11" fill="none" xmlns="http://www.w3.org/2000/svg">
<g opacity="0.5">
<path d="M10.127 3.05556C10.127 1.85017 9.14983 0.873016 7.94444 0.873016H3.05556C1.85017 0.873016 0.873016 1.85017 0.873016 3.05556V7.94444C0.873016 9.14983 1.85017 10.127 3.05556 10.127H7.94444C9.14983 10.127 10.127 9.14983 10.127 7.94444V3.05556ZM11 7.94444C11 9.63198 9.63198 11 7.94444 11H3.05556C1.36802 11 0 9.63198 0 7.94444V3.05556C0 1.36802 1.36802 0 3.05556 0H7.94444C9.63198 0 11 1.36802 11 3.05556V7.94444Z" fill="black"/>
<path d="M3.05556 4.01806C3.05556 2.97981 4.20605 2.35444 5.0773 2.91911L7.31355 4.36846C8.10989 4.88463 8.10989 6.05017 7.31355 6.56634L5.0773 8.01568C4.20605 8.58035 3.05556 7.95498 3.05556 6.91674V4.01806ZM3.92857 6.91674C3.92857 7.26282 4.31201 7.47121 4.60243 7.283L6.83868 5.83366C7.10408 5.6616 7.10408 5.2732 6.83868 5.10114L4.60243 3.6518C4.31201 3.46359 3.92857 3.67198 3.92857 4.01806V6.91674Z" fill="black"/>
</g>
</svg>
