<svg width="11" height="10" viewBox="0 0 11 10" fill="none" xmlns="http://www.w3.org/2000/svg">
<path opacity="0.5" d="M10.1115 0.890295C9.5355 0.319119 8.77294 0.00693739 7.95908 0.00693739C7.14522 0.00693739 6.38032 0.321431 5.80432 0.892607L5.5035 1.19091L5.19801 0.887982C4.62201 0.316806 3.85478 0 3.04092 0C2.22939 0 1.4645 0.314494 0.890831 0.883357C0.314831 1.45453 -0.00231922 2.21302 1.27693e-05 3.02006C1.27693e-05 3.82711 0.319495 4.58328 0.895495 5.15446L5.27496 9.49725C5.3356 9.55737 5.41721 9.58974 5.4965 9.58974C5.57579 9.58974 5.65741 9.55968 5.71804 9.49956L10.1068 5.16371C10.6828 4.59253 11 3.83405 11 3.027C11.0023 2.21995 10.6875 1.46147 10.1115 0.890295ZM9.66376 4.72203L5.4965 8.8382L1.33857 4.71509C0.881503 4.26185 0.629649 3.66061 0.629649 3.02006C0.629649 2.37951 0.879171 1.77828 1.33624 1.32735C1.79098 0.87642 2.39729 0.626675 3.04092 0.626675C3.68688 0.626675 4.29553 0.87642 4.7526 1.32966L5.27963 1.85228C5.40322 1.97484 5.60144 1.97484 5.72504 1.85228L6.2474 1.33429C6.70447 0.881045 7.31312 0.6313 7.95675 0.6313C8.60037 0.6313 9.20669 0.881045 9.66376 1.33197C10.1208 1.78521 10.3704 2.38645 10.3704 3.027C10.3727 3.66755 10.1208 4.26879 9.66376 4.72203Z" fill="black"/>
</svg>
