<svg width="11" height="11" viewBox="0 0 11 11" fill="none" xmlns="http://www.w3.org/2000/svg">
<g opacity="0.5">
<path d="M10.5299 5.02918C10.7895 5.02918 11 5.23964 11 5.49927C11 5.75889 10.7895 5.96935 10.5299 5.96935H0.470085C0.210464 5.96935 0 5.75889 0 5.49927C0 5.23964 0.210464 5.02918 0.470085 5.02918H10.5299Z" fill="black"/>
<path d="M5.029 0.470085C5.029 0.210465 5.23946 1.13484e-08 5.49908 0C5.7587 -1.13484e-08 5.96917 0.210465 5.96917 0.470085L5.96917 10.5299C5.96917 10.7895 5.7587 11 5.49908 11C5.23946 11 5.029 10.7895 5.029 10.5299L5.029 0.470085Z" fill="black"/>
</g>
</svg>
