<svg width="9" height="8" viewBox="0 0 9 8" fill="none" xmlns="http://www.w3.org/2000/svg">
<path d="M8.27305 0.742706C7.80177 0.266217 7.17786 0.00578734 6.51197 0.00578734C5.84609 0.00578734 5.22027 0.268146 4.74899 0.744635L4.50286 0.993489L4.25292 0.740777C3.78164 0.264287 3.15391 0 2.48803 0C1.82405 0 1.19823 0.262358 0.728862 0.736918C0.257589 1.21341 -0.00189754 1.84615 1.04476e-05 2.51941C1.04476e-05 3.19267 0.261405 3.82349 0.732678 4.29998L4.31588 7.92284C4.36549 7.97299 4.43227 8 4.49714 8C4.56201 8 4.62879 7.97492 4.6784 7.92476L8.26923 4.30769C8.7405 3.8312 8.99999 3.19846 8.99999 2.5252C9.0019 1.85194 8.74432 1.21919 8.27305 0.742706ZM7.90671 3.93923L4.49714 7.37304L1.0952 3.93345C0.72123 3.55534 0.515167 3.05377 0.515167 2.51941C0.515167 1.98505 0.719322 1.48348 1.09329 1.10731C1.46535 0.731131 1.96142 0.522788 2.48803 0.522788C3.01654 0.522788 3.51452 0.731131 3.88849 1.10924L4.3197 1.54521C4.42082 1.64746 4.583 1.64746 4.68412 1.54521L5.11151 1.11309C5.48548 0.734989 5.98346 0.526646 6.51007 0.526646C7.03667 0.526646 7.53275 0.734989 7.90671 1.11116C8.28068 1.48927 8.48483 1.99084 8.48483 2.5252C8.48674 3.05956 8.28068 3.56113 7.90671 3.93923Z" fill="black"/>
</svg>
