<svg width="11" height="10" viewBox="0 0 11 10" fill="none" xmlns="http://www.w3.org/2000/svg">
<path d="M10.5259 0C10.7877 0 11 0.212279 11 0.474138C11 0.735997 10.7877 0.948276 10.5259 0.948276H0.474138C0.212279 0.948276 0 0.735997 0 0.474138C0 0.212279 0.212279 0 0.474138 0H10.5259Z" fill="black"/>
<path d="M10.5259 4.36207C10.7877 4.36207 11 4.57435 11 4.83621C11 5.09807 10.7877 5.31034 10.5259 5.31034H0.474138C0.212279 5.31034 0 5.09807 0 4.83621C0 4.57435 0.212279 4.36207 0.474138 4.36207H10.5259Z" fill="black"/>
<path d="M10.5259 8.72414C10.7877 8.72414 11 8.93642 11 9.19828C11 9.46013 10.7877 9.67241 10.5259 9.67241H0.474138C0.212279 9.67241 0 9.46013 0 9.19828C0 8.93642 0.212279 8.72414 0.474138 8.72414H10.5259Z" fill="black"/>
</svg>
