<svg width="5" height="1" viewBox="0 0 5 1" fill="none" xmlns="http://www.w3.org/2000/svg">
<path d="M1.07143 0.5C1.07143 0.776142 0.831581 1 0.535714 1C0.239847 1 0 0.776142 0 0.5C0 0.223858 0.239847 0 0.535714 0C0.831581 0 1.07143 0.223858 1.07143 0.5Z" fill="black"/>
<path d="M3.03571 0.5C3.03571 0.776142 2.79587 1 2.5 1C2.20413 1 1.96429 0.776142 1.96429 0.5C1.96429 0.223858 2.20413 0 2.5 0C2.79587 0 3.03571 0.223858 3.03571 0.5Z" fill="black"/>
<path d="M5 0.5C5 0.776142 4.76015 1 4.46429 1C4.16842 1 3.92857 0.776142 3.92857 0.5C3.92857 0.223858 4.16842 0 4.46429 0C4.76015 0 5 0.223858 5 0.5Z" fill="black"/>
</svg>
