<svg width="8" height="8" viewBox="0 0 8 8" fill="none" xmlns="http://www.w3.org/2000/svg">
<path d="M7.57895 4C7.57895 2.0234 5.9766 0.421053 4 0.421053C2.0234 0.421053 0.421053 2.0234 0.421053 4C0.421053 5.9766 2.0234 7.57895 4 7.57895V8C1.79086 8 0 6.20914 0 4C0 1.79086 1.79086 0 4 0C6.20914 0 8 1.79086 8 4C8 4.79485 7.76816 5.53569 7.36842 6.15831L8 8L6.31579 7.26192C5.66227 7.72673 4.86304 8 4 8V7.57895C4.77272 7.57895 5.48696 7.33435 6.07155 6.91859L6.26604 6.78043L7.2903 7.22903L6.96998 6.29482L6.90419 6.10197L7.01398 5.93051C7.37143 5.37374 7.57895 4.71178 7.57895 4Z" fill="black"/>
</svg>
