<svg width="6" height="8" viewBox="0 0 6 8" fill="none" xmlns="http://www.w3.org/2000/svg">
<path d="M0 4.87805V2.2439C2.35701e-08 1.65121 0.450434 1.17073 1.00607 1.17073H4.02429C4.22635 1.17073 4.39014 1.34545 4.39014 1.56098C4.39014 1.7765 4.22635 1.95122 4.02429 1.95122H1.00607C0.854536 1.95122 0.73169 2.08226 0.73169 2.2439V4.87805C0.73169 5.09357 0.567896 5.26829 0.365845 5.26829C0.163794 5.26829 0 5.09357 0 4.87805Z" fill="black"/>
<path d="M2.85099 0.1143C2.99386 -0.0380999 3.22545 -0.0380999 3.36832 0.1143L4.40369 1.21872C4.58085 1.4077 4.58085 1.7142 4.40369 1.90317L3.36832 3.00759C3.22545 3.15999 2.99386 3.15999 2.85099 3.00759C2.70812 2.85519 2.70812 2.60816 2.85099 2.45576L3.68986 1.56095L2.85099 0.666129C2.70812 0.513729 2.70812 0.2667 2.85099 0.1143Z" fill="black"/>
<path d="M6 3.12195L6 5.7561C6 6.34879 5.54957 6.82927 4.99393 6.82927L1.97571 6.82927C1.77365 6.82927 1.60986 6.65455 1.60986 6.43902C1.60986 6.2235 1.77365 6.04878 1.97571 6.04878L4.99393 6.04878C5.14546 6.04878 5.26831 5.91774 5.26831 5.7561V3.12195C5.26831 2.90643 5.4321 2.73171 5.63415 2.73171C5.83621 2.73171 6 2.90643 6 3.12195Z" fill="black"/>
<path d="M3.14901 7.8857C3.00614 8.0381 2.77455 8.0381 2.63168 7.8857L1.59631 6.78128C1.41915 6.5923 1.41915 6.2858 1.59631 6.09683L2.63168 4.99241C2.77455 4.84001 3.00614 4.84001 3.14901 4.99241C3.29188 5.14481 3.29188 5.39184 3.14901 5.54424L2.31014 6.43905L3.14901 7.33387C3.29188 7.48627 3.29188 7.7333 3.14901 7.8857Z" fill="black"/>
</svg>
