<svg width="11" height="12" viewBox="0 0 11 12" fill="none" xmlns="http://www.w3.org/2000/svg">
<g opacity="0.5">
<path d="M8.65579 4.77872C8.65579 2.63747 6.91997 0.901645 4.77872 0.901645C2.63747 0.901645 0.901645 2.63747 0.901645 4.77872C0.901645 6.91997 2.63747 8.65579 4.77872 8.65579C6.91997 8.65579 8.65579 6.91997 8.65579 4.77872ZM9.55744 4.77872C9.55744 7.41793 7.41793 9.55744 4.77872 9.55744C2.1395 9.55744 0 7.41793 0 4.77872C0 2.1395 2.1395 0 4.77872 0C7.41793 0 9.55744 2.1395 9.55744 4.77872Z" fill="black"/>
<path d="M7.43537 7.70586C7.61142 7.5298 7.8968 7.5298 8.07286 7.70586L10.868 10.501C11.044 10.677 11.044 10.9624 10.868 11.1384C10.6919 11.3145 10.4065 11.3145 10.2305 11.1384L7.43537 8.34335C7.25931 8.16729 7.25931 7.88192 7.43537 7.70586Z" fill="black"/>
</g>
</svg>
