<svg width="9" height="8" viewBox="0 0 9 8" fill="none" xmlns="http://www.w3.org/2000/svg">
<path d="M7.55507 0.000146644C8.66795 -0.0151956 9.36696 1.17641 8.79703 2.11729L5.64766 7.31647C5.01369 8.36307 3.41798 8.16848 3.06272 7.00125L2.32535 4.57844C2.29204 4.46902 2.23323 4.36875 2.1536 4.28566L0.390388 2.44576C-0.459068 1.55934 0.167569 0.101958 1.40549 0.0848917L7.55507 0.000146644ZM8.21504 1.77581C8.51358 1.28297 8.14749 0.658902 7.56456 0.666938L1.41497 0.751683C0.766535 0.760623 0.438269 1.52396 0.883219 1.98827L2.64643 3.82817C2.79845 3.98682 2.91074 4.17822 2.97432 4.38712L3.71169 6.80993C3.89778 7.42133 4.7336 7.52321 5.06568 6.97499L8.21504 1.77581Z" fill="black"/>
<path d="M5.63359 2.11848C5.79561 2.02642 6.00278 2.08105 6.09632 2.24051C6.18986 2.39996 6.13435 2.60386 5.97233 2.69592L2.68673 4.56289L2.34799 3.98545L5.63359 2.11848Z" fill="black"/>
</svg>
