<svg width="11" height="11" viewBox="0 0 11 11" fill="none" xmlns="http://www.w3.org/2000/svg">
<path d="M7.27692 1.26923C7.27692 1.03557 7.08751 0.846154 6.85385 0.846154H4.31538C4.08173 0.846154 3.89231 1.03557 3.89231 1.26923V3.80769C3.89231 4.04135 4.08173 4.23077 4.31538 4.23077H6.85385C7.08751 4.23077 7.27692 4.04135 7.27692 3.80769V1.26923ZM8.12308 3.80769C8.12308 4.50867 7.55482 5.07692 6.85385 5.07692H4.31538C3.61441 5.07692 3.04615 4.50867 3.04615 3.80769V1.26923C3.04615 0.568254 3.61441 0 4.31538 0H6.85385C7.55482 0 8.12308 0.568254 8.12308 1.26923V3.80769Z" fill="black"/>
<path d="M4.23077 7.19231C4.23077 6.95865 4.04135 6.76923 3.80769 6.76923H1.26923C1.03557 6.76923 0.846154 6.95865 0.846154 7.19231V9.73077C0.846154 9.96443 1.03557 10.1538 1.26923 10.1538H3.80769C4.04135 10.1538 4.23077 9.96443 4.23077 9.73077V7.19231ZM5.07692 9.73077C5.07692 10.4317 4.50867 11 3.80769 11H1.26923C0.568254 11 0 10.4317 0 9.73077V7.19231C0 6.49133 0.568254 5.92308 1.26923 5.92308H3.80769C4.50867 5.92308 5.07692 6.49133 5.07692 7.19231V9.73077Z" fill="black"/>
<path d="M10.1538 7.19231C10.1538 6.95865 9.96443 6.76923 9.73077 6.76923H7.19231C6.95865 6.76923 6.76923 6.95865 6.76923 7.19231V9.73077C6.76923 9.96443 6.95865 10.1538 7.19231 10.1538H9.73077C9.96443 10.1538 10.1538 9.96443 10.1538 9.73077V7.19231ZM11 9.73077C11 10.4317 10.4317 11 9.73077 11H7.19231C6.49133 11 5.92308 10.4317 5.92308 9.73077V7.19231C5.92308 6.49133 6.49133 5.92308 7.19231 5.92308H9.73077C10.4317 5.92308 11 6.49133 11 7.19231V9.73077Z" fill="black"/>
</svg>
