<svg width="14" height="14" viewBox="0 0 14 14" fill="none" xmlns="http://www.w3.org/2000/svg">
<path d="M12.4091 3.97727C12.4091 2.65932 11.3407 1.59091 10.0227 1.59091H3.97727C2.65932 1.59091 1.59091 2.65932 1.59091 3.97727V10.0227C1.59091 11.3407 2.65932 12.4091 3.97727 12.4091H10.0227C11.3407 12.4091 12.4091 11.3407 12.4091 10.0227V3.97727ZM14 10.0227C14 12.2193 12.2193 14 10.0227 14H3.97727C1.78069 14 0 12.2193 0 10.0227V3.97727C0 1.78069 1.78069 1.63993e-07 3.97727 0H10.0227C12.2193 0 14 1.78069 14 3.97727V10.0227Z" fill="black"/>
<path d="M9.22727 7C9.22727 5.76991 8.23009 4.77273 7 4.77273C5.76991 4.77273 4.77273 5.76991 4.77273 7C4.77273 8.23009 5.76991 9.22727 7 9.22727C8.23009 9.22727 9.22727 8.23009 9.22727 7ZM10.8182 7C10.8182 9.10872 9.10872 10.8182 7 10.8182C4.89128 10.8182 3.18182 9.10872 3.18182 7C3.18182 4.89128 4.89128 3.18182 7 3.18182C9.10872 3.18182 10.8182 4.89128 10.8182 7Z" fill="black"/>
<path d="M11.2955 3.34091C11.2955 3.69236 11.0105 3.97727 10.6591 3.97727C10.3076 3.97727 10.0227 3.69236 10.0227 3.34091C10.0227 2.98946 10.3076 2.70455 10.6591 2.70455C11.0105 2.70455 11.2955 2.98946 11.2955 3.34091Z" fill="black"/>
</svg>
