<svg width="800" height="800" viewBox="0 0 800 800" fill="none" xmlns="http://www.w3.org/2000/svg">
<path d="M400 604.138C360 604.138 322.759 593.103 289.655 571.034C256.552 548.966 231.723 521.38 215.172 486.897L49.6547 200C15.1719 262.069 0 329.655 0 400C0 500.689 33.1031 587.586 97.9313 662.069C162.759 736.552 244.138 780.689 340.691 795.862L456.553 594.483C445.517 598.62 424.828 604.138 400 604.138Z" fill="white"/>
<path d="M274.483 234.483C311.723 205.517 353.103 193.103 400 193.103H743.448C707.586 132.414 659.311 88.275 598.62 53.7922C537.931 17.9312 471.723 0 400 0C337.931 0 278.62 13.7938 224.828 40C171.036 66.2062 120 104.828 84.1375 154.483L200 344.828C211.034 300.689 237.241 263.448 274.483 234.483Z" fill="white"/>
<path d="M769.655 249.655H537.931C577.931 289.655 605.517 342.069 605.517 400C605.517 442.759 593.103 481.38 569.655 517.241L404.137 800C513.103 798.62 606.897 760 684.137 681.38C761.378 602.76 800 508.966 800 400C800 348.966 791.723 295.172 769.655 249.655Z" fill="white"/>
<path d="M400 248.277C482.759 248.277 551.723 317.242 551.723 400C551.723 482.758 482.759 551.723 400 551.723C317.241 551.723 248.277 482.759 248.277 400C248.277 317.241 317.241 248.277 400 248.277Z" fill="white"/>
</svg>
