<svg width="8" height="8" viewBox="0 0 8 8" fill="none" xmlns="http://www.w3.org/2000/svg">
<path d="M0.746667 7.21678H7.25333V2.29371H0.746667V7.21678ZM8 7.32867C8 7.69944 7.71346 8 7.36 8H0.64C0.286537 8 0 7.69944 0 7.32867V2.18182C8.24674e-08 1.81105 0.286538 1.51049 0.64 1.51049H7.36C7.71346 1.51049 8 1.81105 8 2.18182V7.32867Z" fill="black"/>
<path d="M1.06667 0.727273C1.06667 0.325611 1.37708 0 1.76 0H6.18667C6.56958 0 6.88 0.325611 6.88 0.727273H1.06667Z" fill="black"/>
<path d="M3.25333 3.41259L5.44 4.75524L3.25333 6.0979V3.41259Z" fill="black"/>
</svg>
