<svg width="4" height="4" viewBox="0 0 4 4" fill="none" xmlns="http://www.w3.org/2000/svg">
<path d="M0 2C0 0.89543 0.89545 0 2.00004 0C2.59743 0 3.13401 0.22813 3.50008 0.642857L3.07149 1.07143C2.8093 0.774376 2.42669 0.571429 2.00004 0.571429C1.21105 0.571429 0.571441 1.21102 0.571441 2C0.571441 2.78898 1.21105 3.42857 2.00004 3.42857C2.70033 3.42857 3.28344 2.92442 3.40521 2.25921L3.9673 2.36203C3.79675 3.29376 2.98118 4 2.00004 4C0.89545 4 0 3.10457 0 2Z" fill="#5F6267"/>
<path d="M4 1.71446V0.143029L2.42854 1.71446H4Z" fill="#5F6267"/>
</svg>
