<svg width="8" height="8" viewBox="0 0 8 8" fill="none" xmlns="http://www.w3.org/2000/svg">
<path d="M7.24324 4C7.24324 2.20881 5.79119 0.756757 4 0.756757C2.20881 0.756757 0.756757 2.20881 0.756757 4C0.756757 5.79119 2.20881 7.24324 4 7.24324C5.79119 7.24324 7.24324 5.79119 7.24324 4ZM8 4C8 6.20914 6.20914 8 4 8C1.79086 8 0 6.20914 0 4C0 1.79086 1.79086 0 4 0C6.20914 0 8 1.79086 8 4Z" fill="black"/>
<path d="M4.72973 2.89189C4.72973 2.48887 4.40302 2.16216 4 2.16216C3.59698 2.16216 3.27027 2.48887 3.27027 2.89189C3.27027 3.29491 3.59698 3.62162 4 3.62162C4.40302 3.62162 4.72973 3.29491 4.72973 2.89189ZM5.48649 2.89189C5.48649 3.71286 4.82096 4.37838 4 4.37838C3.17904 4.37838 2.51351 3.71286 2.51351 2.89189C2.51351 2.07093 3.17904 1.40541 4 1.40541C4.82096 1.40541 5.48649 2.07093 5.48649 2.89189Z" fill="black"/>
<path d="M3.98781 4.75676C5.25431 4.75676 6.32237 5.60223 6.66021 6.75876L5.93381 6.97097C5.68768 6.12841 4.90906 5.51352 3.98781 5.51351C3.06346 5.51351 2.28269 6.13254 2.03933 6.97941L1.31202 6.77043C1.64609 5.60791 2.71706 4.75676 3.98781 4.75676Z" fill="black"/>
</svg>
