<svg width="3" height="4" viewBox="0 0 3 4" fill="none" xmlns="http://www.w3.org/2000/svg">
<path d="M0 1.81818C0 1.61735 0.167893 1.45455 0.375 1.45455H2.625C2.83211 1.45455 3 1.61735 3 1.81818V3.63636C3 3.83719 2.83211 4 2.625 4H0.375C0.167893 4 0 3.83719 0 3.63636V1.81818Z" fill="#5F6267"/>
<path d="M2.25 1.09091C2.25 0.689247 1.91421 0.363636 1.5 0.363636C1.08579 0.363636 0.75 0.689247 0.75 1.09091V1.45455H0.375V1.09091C0.375 0.488417 0.87868 0 1.5 0C2.12132 0 2.625 0.488417 2.625 1.09091V1.45455H2.25V1.09091Z" fill="#5F6267"/>
</svg>
