<svg width="7" height="7" viewBox="0 0 7 7" fill="none" xmlns="http://www.w3.org/2000/svg">
<path d="M3.25432 0.0736102C3.41 -0.0278042 3.60771 -0.0244276 3.76059 0.0837379L6.85353 2.2721C7.00465 2.37902 7.04548 2.59571 6.94473 2.75609C6.84399 2.91647 6.63982 2.95981 6.4887 2.85289L3.5 0.738241L0.511298 2.85289C0.360179 2.95981 0.156013 2.91647 0.0552669 2.75609C-0.045479 2.59571 -0.00464575 2.37902 0.146473 2.2721L3.23941 0.0837379L3.25432 0.0736102Z" fill="black"/>
<path d="M6.38925 6.25211C6.38925 6.66516 6.07375 7 5.68456 7H4.08726V4.25773H2.81881V7H1.31547C0.92628 7 0.610779 6.66516 0.610779 6.25211V2.76194L3.50002 0.717704L6.38925 2.76194V6.25211Z" fill="black"/>
</svg>
