<svg width="5" height="7" viewBox="0 0 5 7" fill="none" xmlns="http://www.w3.org/2000/svg">
<path d="M0.355355 3.51125C0.0480846 2.93434 0.230432 2.19664 0.76264 1.86355L3.12465 0.385285C3.65686 0.0522016 4.33739 0.249868 4.64466 0.826785C4.95193 1.4037 4.76958 2.1414 4.23737 2.47449L1.87536 3.95275C1.34315 4.28584 0.662625 4.08817 0.355355 3.51125Z" fill="#FF0025"/>
<path d="M4.46619 0.938395C4.21582 0.468314 3.66132 0.307253 3.22767 0.578654L0.865672 2.05691C0.432021 2.32831 0.283442 2.9294 0.53381 3.39948C0.784178 3.86956 1.33868 4.03063 1.77233 3.75922L4.13433 2.28097C4.56798 2.00956 4.71656 1.40848 4.46619 0.938395ZM4.8231 0.715024C5.18727 1.39878 4.97115 2.27309 4.34039 2.66785L1.97839 4.14611C1.34763 4.54088 0.541075 4.30661 0.176904 3.62285C-0.187268 2.9391 0.0288475 2.06479 0.659612 1.67002L3.02161 0.191765C3.65237 -0.203 4.45892 0.0312711 4.8231 0.715024Z" fill="#FF0025"/>
<path d="M0.355355 6.17338C0.0480846 5.59646 0.230432 4.85876 0.76264 4.52568L3.12465 3.04741C3.65686 2.71432 4.33739 2.91199 4.64466 3.48891C4.95193 4.06582 4.76958 4.80352 4.23737 5.13661L1.87536 6.61488C1.34315 6.94796 0.662625 6.75029 0.355355 6.17338Z" fill="#FF0025"/>
<path d="M4.46619 3.60052C4.21582 3.13044 3.66132 2.96938 3.22767 3.24078L0.865672 4.71903C0.432021 4.99044 0.283442 5.59153 0.53381 6.06161C0.784178 6.53169 1.33868 6.69275 1.77233 6.42135L4.13433 4.94309C4.56798 4.67169 4.71656 4.0706 4.46619 3.60052ZM4.8231 3.37715C5.18727 4.0609 4.97115 4.93521 4.34039 5.32998L1.97839 6.80824C1.34763 7.203 0.541075 6.96873 0.176904 6.28498C-0.187268 5.60122 0.0288475 4.72691 0.659612 4.33215L3.02161 2.85389C3.65237 2.45912 4.45892 2.69339 4.8231 3.37715Z" fill="#FF0025"/>
<path d="M1.40121 2.27838H3.62665V4.73545H1.40121V2.27838Z" fill="#FF0025"/>
<path d="M1.81333 2.5911L3.25575 3.52925L1.81333 4.46741V2.5911Z" fill="white"/>
</svg>
