<svg width="7" height="7" viewBox="0 0 7 7" fill="none" xmlns="http://www.w3.org/2000/svg">
<path d="M2.8 0C2.35817 0 2 0.358172 2 0.8H3.6C3.6 0.358172 3.24183 0 2.8 0Z" fill="#5C4228"/>
<path d="M0 5.6V4.4H0.4C0.841828 4.4 1.2 4.04183 1.2 3.6C1.2 3.15817 0.841828 2.8 0.4 2.8H0V1.6C0 1.15817 0.358172 0.8 0.8 0.8V1.2C0.579086 1.2 0.4 1.37909 0.4 1.6V2.4C1.06274 2.4 1.6 2.93726 1.6 3.6L1.59844 3.66172C1.56631 4.29578 1.04204 4.8 0.4 4.8V5.6C0.4 5.80707 0.557333 5.97751 0.758984 5.99805L0.8 6H4.8C5.02091 6 5.2 5.82091 5.2 5.6V1.6C5.2 1.37909 5.02091 1.2 4.8 1.2V0.8C5.24183 0.8 5.6 1.15817 5.6 1.6V5.6C5.6 6.04183 5.24183 6.4 4.8 6.4H0.8C0.358172 6.4 0 6.04183 0 5.6ZM4.8 0.8V1.2H0.8V0.8H4.8Z" fill="#5C4228"/>
<path d="M6.4 3.6C6.4 3.15817 6.04183 2.8 5.6 2.8V4.4C6.04183 4.4 6.4 4.04183 6.4 3.6Z" fill="#5C4228"/>
</svg>
