<svg width="1" height="4" viewBox="0 0 1 4" fill="none" xmlns="http://www.w3.org/2000/svg">
<path d="M1 0.5C1 0.776142 0.776142 1 0.5 1C0.223858 1 0 0.776142 0 0.5C0 0.223858 0.223858 0 0.5 0C0.776142 0 1 0.223858 1 0.5Z" fill="#5F6366"/>
<path d="M1 2C1 2.27614 0.776142 2.5 0.5 2.5C0.223858 2.5 0 2.27614 0 2C0 1.72386 0.223858 1.5 0.5 1.5C0.776142 1.5 1 1.72386 1 2Z" fill="#5F6366"/>
<path d="M1 3.5C1 3.77614 0.776142 4 0.5 4C0.223858 4 0 3.77614 0 3.5C0 3.22386 0.223858 3 0.5 3C0.776142 3 1 3.22386 1 3.5Z" fill="#5F6366"/>
</svg>
