<svg width="6" height="5" viewBox="0 0 6 5" fill="none" xmlns="http://www.w3.org/2000/svg">
<path d="M5.74138 0C5.88421 0 6 0.109734 6 0.245098C6 0.380462 5.88421 0.490196 5.74138 0.490196H0.258621C0.115788 0.490196 0 0.380462 0 0.245098C0 0.109734 0.115788 0 0.258621 0H5.74138Z" fill="black"/>
<path d="M5.74138 2.2549C5.88421 2.2549 6 2.36464 6 2.5C6 2.63536 5.88421 2.7451 5.74138 2.7451H0.258621C0.115788 2.7451 0 2.63536 0 2.5C0 2.36464 0.115788 2.2549 0.258621 2.2549H5.74138Z" fill="black"/>
<path d="M5.74138 4.5098C5.88421 4.5098 6 4.61954 6 4.7549C6 4.89027 5.88421 5 5.74138 5H0.258621C0.115788 5 0 4.89027 0 4.7549C0 4.61954 0.115788 4.5098 0.258621 4.5098H5.74138Z" fill="black"/>
</svg>
