<svg width="7" height="9" viewBox="0 0 7 9" fill="none" xmlns="http://www.w3.org/2000/svg">
<path d="M0.497497 4.51447C0.0673185 3.77272 0.322605 2.82425 1.0677 2.396L4.37451 0.495366C5.1196 0.0671163 6.07234 0.321259 6.50252 1.06301C6.9327 1.80476 6.67741 2.75323 5.93232 3.18148L2.62551 5.08211C1.88042 5.51036 0.927675 5.25622 0.497497 4.51447Z" fill="white"/>
<path d="M6.25267 1.20651C5.90215 0.602118 5.12584 0.39504 4.51873 0.743984L1.21194 2.6446C0.60483 2.99355 0.396818 3.76638 0.747334 4.37076C1.09785 4.97515 1.87416 5.18223 2.48127 4.83329L5.78806 2.93267C6.39517 2.58373 6.60318 1.8109 6.25267 1.20651ZM6.75233 0.919317C7.26218 1.79843 6.95961 2.92254 6.07654 3.4301L2.76975 5.33072C1.88668 5.83827 0.757506 5.53707 0.247665 4.65795C-0.262176 3.77884 0.0403866 2.65473 0.923456 2.14717L4.23025 0.246555C5.11332 -0.261 6.24249 0.0402057 6.75233 0.919317Z" fill="black"/>
<path d="M0.497497 7.9372C0.0673185 7.19545 0.322605 6.24698 1.0677 5.81873L4.37451 3.91809C5.1196 3.48985 6.07234 3.74399 6.50252 4.48574C6.9327 5.22749 6.67741 6.17596 5.93232 6.60421L2.62551 8.50484C1.88042 8.93309 0.927675 8.67895 0.497497 7.9372Z" fill="white"/>
<path d="M6.25267 4.62924C5.90215 4.02485 5.12584 3.81777 4.51873 4.16671L1.21194 6.06733C0.60483 6.41627 0.396818 7.1891 0.747334 7.79349C1.09785 8.39788 1.87416 8.60496 2.48127 8.25602L5.78806 6.3554C6.39517 6.00645 6.60318 5.23362 6.25267 4.62924ZM6.75233 4.34205C7.26218 5.22116 6.95961 6.34527 6.07654 6.85283L2.76975 8.75345C1.88668 9.261 0.757506 8.95979 0.247665 8.08068C-0.262176 7.20157 0.0403866 6.07746 0.923456 5.5699L4.23025 3.66928C5.11332 3.16173 6.24249 3.46293 6.75233 4.34205Z" fill="black"/>
<path d="M1.96169 2.92934H5.07731V6.08844H1.96169V2.92934Z" fill="white"/>
<path d="M2.53866 3.33141L4.55804 4.53761L2.53866 5.74381V3.33141Z" fill="black"/>
</svg>
