<svg width="7" height="7" viewBox="0 0 7 7" fill="none" xmlns="http://www.w3.org/2000/svg">
<path d="M0 6.30111C0 6.55256 0.107392 6.75225 0.322176 6.90016C0.440677 6.96672 0.566585 7 0.699899 7C0.803588 7 0.907276 6.97412 1.01097 6.92235L6.62127 4.12678C6.73236 4.06762 6.82494 3.98257 6.899 3.87163C6.97307 3.7607 7.0064 3.63497 6.99899 3.49445C6.99158 3.35394 6.95826 3.23191 6.899 3.12837C6.83975 3.02483 6.74718 2.93978 6.62127 2.87322L1.01097 0.0776545C0.907276 0.0258848 0.803588 0 0.699899 0C0.573991 0 0.448084 0.0332805 0.322176 0.0998416C0.107392 0.240359 0 0.440042 0 0.698891V6.30111Z" fill="white"/>
</svg>
