<svg width="6" height="2" viewBox="0 0 6 2" fill="none" xmlns="http://www.w3.org/2000/svg">
<path d="M1.5 0.75C1.5 1.16421 1.16421 1.5 0.75 1.5C0.335786 1.5 0 1.16421 0 0.75C0 0.335786 0.335786 0 0.75 0C1.16421 0 1.5 0.335786 1.5 0.75Z" fill="black"/>
<path d="M3.5 0.75C3.5 1.16421 3.16421 1.5 2.75 1.5C2.33579 1.5 2 1.16421 2 0.75C2 0.335786 2.33579 0 2.75 0C3.16421 0 3.5 0.335786 3.5 0.75Z" fill="black"/>
<path d="M5.5 0.75C5.5 1.16421 5.16421 1.5 4.75 1.5C4.33579 1.5 4 1.16421 4 0.75C4 0.335786 4.33579 0 4.75 0C5.16421 0 5.5 0.335786 5.5 0.75Z" fill="black"/>
</svg>
