<svg width="7" height="8" viewBox="0 0 7 8" fill="none" xmlns="http://www.w3.org/2000/svg">
<path d="M0 4.39786C0.000170178 3.78375 0.526541 3.41051 0.964754 3.29989L1.0863 3.26296C1.36742 3.16432 1.62501 2.97904 1.84139 2.75516L1.93027 2.65787C2.12661 2.43238 2.24442 2.22019 2.28199 2.12024C2.36419 1.89973 2.4391 1.49189 2.47418 1.0173V1.01659C2.52233 0.374545 3.18026 -0.135475 3.90763 0.0322513H3.90915L4.03981 0.0627899L4.03905 0.0635001C4.38502 0.144006 4.71378 0.384953 4.82529 0.765889V0.766599C4.92538 1.11071 5.05832 1.75849 4.95215 2.54636C5.29026 2.53619 5.69728 2.55844 6.07947 2.67633L6.08023 2.67704C6.47147 2.79826 6.78762 3.12865 6.92344 3.49022L6.9242 3.49093C7.03173 3.7791 7.03476 4.11844 6.86875 4.44047L6.88242 4.47882V4.48024C6.9323 4.64247 6.95383 4.81436 6.95383 4.97667C6.9538 5.139 6.93233 5.31088 6.88242 5.4731V5.47381C6.87159 5.50855 6.85732 5.54493 6.84216 5.58247C6.90003 5.82283 6.85168 6.05189 6.79582 6.20674L6.7943 6.21029C6.74524 6.34146 6.6792 6.46603 6.59983 6.58315C6.60662 6.63109 6.61047 6.67775 6.61047 6.72235C6.61045 6.93284 6.54542 7.14319 6.43271 7.32602L6.43195 7.32531C6.19813 7.70535 5.74169 7.99988 5.13067 8H3.38348C3.04568 8 2.77022 7.95762 2.52583 7.87927L2.51976 7.87713C2.32445 7.81103 2.13771 7.72463 1.96293 7.62004V7.62075L1.94242 7.60868C1.71282 7.47904 1.5228 7.36957 1.07111 7.32531H1.07035C0.525427 7.27114 4.31168e-05 6.85707 0 6.24864V4.39786ZM0.777881 6.24864C0.777925 6.42271 0.932974 6.58044 1.15239 6.60232L1.36889 6.62931C1.70739 6.68286 1.93792 6.7737 2.1293 6.87007L2.34504 6.98654L2.34883 6.98867L2.37238 7.00288L2.37846 7.00572C2.50385 7.0811 2.6377 7.14382 2.77804 7.19179L2.89882 7.22446C3.02798 7.2541 3.1839 7.27275 3.38348 7.27275H5.13067C5.45441 7.27264 5.65936 7.12427 5.7589 6.9624C5.80974 6.87982 5.83257 6.79392 5.83258 6.72235C5.83258 6.68562 5.82666 6.65424 5.81739 6.63002L5.74523 6.44111L5.8774 6.28344C5.9564 6.18892 6.01833 6.08295 6.06048 5.97024C6.09998 5.85861 6.10033 5.76488 6.07263 5.70605L5.99667 5.54341L6.08631 5.38646C6.10463 5.35464 6.12094 5.31672 6.13493 5.27212C6.16182 5.18469 6.17592 5.08157 6.17595 4.97667C6.17595 4.87179 6.1618 4.76867 6.13493 4.68123V4.68052C6.12272 4.64173 6.10802 4.6052 6.09087 4.57257L5.98983 4.38081L6.12049 4.20468C6.23723 4.04787 6.24544 3.8809 6.18962 3.73098C6.12855 3.56852 5.99958 3.44184 5.88424 3.38653L5.83562 3.36736C5.57502 3.28697 5.27701 3.26566 5.00229 3.27219L4.73717 3.2871C4.6692 3.29292 4.6012 3.29975 4.53359 3.30841L3.97144 3.38085L4.10286 2.86453C4.29093 2.1247 4.20467 1.48176 4.1135 1.10323L4.07476 0.957644C4.04845 0.868148 3.9671 0.795675 3.85142 0.76873L3.85066 0.76802L3.72152 0.737481V0.738191C3.49472 0.685856 3.26726 0.84476 3.25054 1.06772C3.21377 1.56504 3.13213 2.04873 3.01581 2.36029V2.361C2.93394 2.57894 2.72812 2.92206 2.41948 3.24236H2.41872C2.10908 3.5628 1.68636 3.87088 1.16758 4.00228C0.935256 4.06094 0.778062 4.22585 0.777881 4.39786V6.24864Z" fill="black"/>
</svg>
