<svg width="7" height="7" viewBox="0 0 7 7" fill="none" xmlns="http://www.w3.org/2000/svg">
<path d="M5.50823 2.96802C5.50823 1.63811 4.40362 0.560003 3.041 0.560003C1.67839 0.560003 0.573774 1.63811 0.573774 2.96802C0.573774 4.29793 1.67839 5.37603 3.041 5.37603C4.40362 5.37603 5.50823 4.29793 5.50823 2.96802ZM6.082 2.96802C6.082 4.60721 4.7205 5.93604 3.041 5.93604C1.3615 5.93604 0 4.60721 0 2.96802C0 1.32883 1.3615 0 3.041 0C4.7205 0 6.082 1.32883 6.082 2.96802Z" fill="white"/>
<path d="M4.7316 4.78604C4.84363 4.67669 5.02524 4.67669 5.13727 4.78604L6.91597 6.52205C7.02801 6.6314 7.02801 6.80864 6.91597 6.91799C6.80394 7.02734 6.62233 7.02734 6.5103 6.91799L4.7316 5.18198C4.61956 5.07263 4.61956 4.89539 4.7316 4.78604Z" fill="white"/>
</svg>
