<svg width="7" height="7" viewBox="0 0 7 7" fill="none" xmlns="http://www.w3.org/2000/svg">
<path d="M4.10394 0C4.15687 1.66791e-06 4.20843 0.0168019 4.2512 0.0479813C4.29398 0.0791606 4.32575 0.12311 4.34194 0.1735L4.61694 1.028C4.73244 1.0845 4.84294 1.148 4.94844 1.2195L5.82644 1.0305C5.87821 1.01945 5.93215 1.02511 5.98049 1.04668C6.02883 1.06824 6.06908 1.1046 6.09544 1.1505L6.78844 2.35C6.81491 2.39588 6.82611 2.44898 6.82045 2.50163C6.81479 2.55429 6.79255 2.6038 6.75694 2.643L6.15444 3.308C6.16322 3.43552 6.16322 3.56348 6.15444 3.691L6.75694 4.357C6.79255 4.3962 6.81479 4.44571 6.82045 4.49837C6.82611 4.55102 6.81491 4.60412 6.78844 4.65L6.09544 5.85C6.06901 5.89581 6.02873 5.93206 5.98039 5.95354C5.93206 5.97501 5.87816 5.9806 5.82644 5.9695L4.94844 5.7805C4.84344 5.8515 4.73244 5.9155 4.61744 5.972L4.34194 6.8265C4.32575 6.87689 4.29398 6.92084 4.2512 6.95202C4.20843 6.9832 4.15687 7 4.10394 7H2.71794C2.66501 7 2.61345 6.9832 2.57068 6.95202C2.52791 6.92084 2.49614 6.87689 2.47994 6.8265L2.20544 5.9725C2.09025 5.91617 1.97915 5.85185 1.87294 5.78L0.995443 5.9695C0.943675 5.98055 0.889736 5.97489 0.841393 5.95332C0.793051 5.93176 0.752802 5.8954 0.726443 5.8495L0.0334428 4.65C0.00698007 4.60412 -0.00422873 4.55102 0.00143262 4.49837C0.00709397 4.44571 0.0293329 4.3962 0.0649428 4.357L0.667443 3.691C0.658715 3.56382 0.658715 3.43618 0.667443 3.309L0.0649428 2.643C0.0293329 2.6038 0.00709397 2.55429 0.00143262 2.50163C-0.00422873 2.44898 0.00698007 2.39588 0.0334428 2.35L0.726443 1.15C0.752875 1.10419 0.793155 1.06794 0.841492 1.04646C0.889828 1.02499 0.943729 1.0194 0.995443 1.0305L1.87294 1.22C1.97894 1.1485 2.08994 1.084 2.20544 1.0275L2.48044 0.1735C2.49659 0.123272 2.52821 0.0794393 2.57078 0.048275C2.61335 0.0171107 2.66468 0.000212834 2.71744 0H4.10344H4.10394ZM3.92094 0.5H2.90094L2.61694 1.3835L2.42544 1.477C2.3313 1.52307 2.24042 1.57552 2.15344 1.634L1.97644 1.754L1.06844 1.558L0.558443 2.442L1.18094 3.131L1.16594 3.343C1.15876 3.44754 1.15876 3.55246 1.16594 3.657L1.18094 3.869L0.557443 4.558L1.06794 5.442L1.97594 5.2465L2.15294 5.366C2.23992 5.42448 2.3308 5.47693 2.42494 5.523L2.61644 5.6165L2.90094 6.5H3.92194L4.20694 5.616L4.39794 5.523C4.49198 5.47704 4.5827 5.42458 4.66944 5.366L4.84594 5.2465L5.75444 5.442L6.26444 4.558L5.64144 3.869L5.65644 3.657C5.66365 3.55229 5.66365 3.44721 5.65644 3.3425L5.64144 3.1305L6.26494 2.442L5.75444 1.558L4.84594 1.753L4.66944 1.634C4.58271 1.57541 4.49199 1.52295 4.39794 1.477L4.20694 1.384L3.92144 0.5H3.92094ZM3.41094 2C3.80877 2 4.1903 2.15804 4.4716 2.43934C4.75291 2.72064 4.91094 3.10218 4.91094 3.5C4.91094 3.89782 4.75291 4.27936 4.4716 4.56066C4.1903 4.84196 3.80877 5 3.41094 5C3.01312 5 2.63159 4.84196 2.35028 4.56066C2.06898 4.27936 1.91094 3.89782 1.91094 3.5C1.91094 3.10218 2.06898 2.72064 2.35028 2.43934C2.63159 2.15804 3.01312 2 3.41094 2ZM3.41094 2.5C3.14573 2.5 2.89137 2.60536 2.70384 2.79289C2.5163 2.98043 2.41094 3.23478 2.41094 3.5C2.41094 3.76522 2.5163 4.01957 2.70384 4.20711C2.89137 4.39464 3.14573 4.5 3.41094 4.5C3.67616 4.5 3.93051 4.39464 4.11805 4.20711C4.30559 4.01957 4.41094 3.76522 4.41094 3.5C4.41094 3.23478 4.30559 2.98043 4.11805 2.79289C3.93051 2.60536 3.67616 2.5 3.41094 2.5Z" fill="white"/>
</svg>
