<svg width="5" height="5" viewBox="0 0 5 5" fill="none" xmlns="http://www.w3.org/2000/svg">
<path d="M2.5 0C3.88056 8.25898e-05 5 1.11942 5 2.5C4.99992 3.88051 3.88051 4.99992 2.5 5C1.11942 5 8.24612e-05 3.88056 0 2.5C0 1.11937 1.11937 0 2.5 0ZM1.5 1.03418C1.44729 1.03418 1.39451 1.04831 1.3418 1.07617C1.25187 1.13501 1.20703 1.21877 1.20703 1.32715V3.67285C1.20711 3.778 1.25195 3.86195 1.3418 3.92383C1.39135 3.95162 1.44426 3.96484 1.5 3.96484C1.54332 3.96483 1.58656 3.95422 1.62988 3.93262L3.97949 2.76172C4.0258 2.73696 4.0648 2.70157 4.0957 2.65527C4.12662 2.60887 4.14079 2.55582 4.1377 2.49707C4.13456 2.43839 4.12046 2.38701 4.0957 2.34375C4.07093 2.30056 4.032 2.26511 3.97949 2.2373L1.62988 1.06641C1.58663 1.04488 1.54325 1.03419 1.5 1.03418Z" fill="black"/>
</svg>
