<svg width="9" height="7" viewBox="0 0 9 7" fill="none" xmlns="http://www.w3.org/2000/svg">
<path d="M1.82085 1.31792C1.94914 1.18388 2.15708 1.18388 2.28537 1.31792L3.34483 2.42494C3.48409 2.57047 3.48409 2.80634 3.34483 2.95187L2.28537 4.05889C2.15708 4.19293 1.94914 4.19293 1.82085 4.05889C1.69257 3.92484 1.69257 3.70756 1.82085 3.57352L2.66795 2.68841L1.82085 1.80329C1.69257 1.66925 1.69257 1.45197 1.82085 1.31792Z" fill="white"/>
<path d="M6.66282 1.31792C6.53453 1.18388 6.32659 1.18388 6.1983 1.31792L5.13884 2.42494C4.99958 2.57047 4.99958 2.80634 5.13884 2.95187L6.1983 4.05889C6.32659 4.19293 6.53453 4.19293 6.66282 4.05889C6.7911 3.92484 6.7911 3.70756 6.66282 3.57352L5.81572 2.68841L6.66282 1.80329C6.7911 1.66925 6.7911 1.45197 6.66282 1.31792Z" fill="white"/>
<path d="M8.52174 4.66667V5.37681L0 5.37681L6.20828e-08 4.66667L8.52174 4.66667Z" fill="white"/>
<path d="M0.811594 6.18841H7.71014V0.811594H0.811594V6.18841ZM8.52174 6.49275C8.52174 6.7729 8.29464 7 8.01449 7H0.507246C0.227102 7 6.20828e-08 6.7729 6.20828e-08 6.49275V0.507246C6.20828e-08 0.227101 0.227103 0 0.507246 0H8.01449C8.29464 0 8.52174 0.227102 8.52174 0.507246V6.49275Z" fill="white"/>
</svg>
