<svg width="8" height="6" viewBox="0 0 8 6" fill="none" xmlns="http://www.w3.org/2000/svg">
<path d="M0.00123872 2.89331C0.0167081 2.20247 0.0244428 1.85706 0.277957 1.56136C0.324228 1.50739 0.392121 1.44326 0.449024 1.39978C0.76079 1.16153 1.17241 1.16153 1.99564 1.16153C2.28976 1.16153 2.43682 1.16153 2.577 1.12669C2.60614 1.11946 2.63496 1.11111 2.6634 1.10168C2.80031 1.05628 2.92309 0.978138 3.16867 0.821853C4.13756 0.205266 4.62198 -0.103025 5.0286 0.0309021C5.10653 0.0565784 5.18201 0.0936435 5.24942 0.139356C5.6009 0.377789 5.62762 0.93253 5.68102 2.04201C5.70082 2.45284 5.71429 2.80444 5.71429 3C5.71429 3.19556 5.70082 3.54716 5.68102 3.95798C5.62762 5.06745 5.6009 5.62223 5.24942 5.86065C5.18201 5.90637 5.10653 5.94342 5.0286 5.9691C4.62198 6.10302 4.13756 5.79473 3.16867 5.17815C2.92309 5.02185 2.80031 4.94374 2.6634 4.89833C2.63496 4.88888 2.60614 4.88055 2.577 4.87332C2.43682 4.83848 2.28976 4.83848 1.99564 4.83848C1.17241 4.83848 0.76079 4.83848 0.449024 4.60024C0.392121 4.55674 0.324228 4.49261 0.277957 4.43865C0.0244428 4.14293 0.0167081 3.79751 0.00123872 3.10669C0.000426717 3.07043 0 3.0348 0 3C0 2.9652 0.000426717 2.92958 0.00123872 2.89331Z" fill="white"/>
<path fill-rule="evenodd" clip-rule="evenodd" d="M6.95995 0.76497C7.08116 0.674845 7.26134 0.689458 7.36234 0.797608L7.14285 0.96079C7.36234 0.797608 7.36234 0.797608 7.36234 0.797608L7.36279 0.798075L7.36329 0.798599L7.36441 0.799826L7.36727 0.802977C7.36942 0.805389 7.37211 0.808426 7.3753 0.812093C7.38168 0.819424 7.38997 0.829278 7.39991 0.841708C7.4198 0.866564 7.44631 0.901705 7.47713 0.947535C7.53882 1.03924 7.61762 1.17354 7.69525 1.3536C7.85073 1.71432 8 2.25515 8 2.99999C8 3.74484 7.85073 4.28568 7.69525 4.64641C7.61762 4.82644 7.53882 4.96076 7.47713 5.05247C7.44631 5.0983 7.4198 5.13344 7.39991 5.1583C7.38997 5.17071 7.38168 5.18058 7.3753 5.1879C7.37211 5.19157 7.36942 5.19462 7.36727 5.19701L7.36441 5.20017L7.36329 5.20142L7.36279 5.20194C7.36279 5.20194 7.36234 5.20239 7.14285 5.0392L7.36234 5.20239C7.26134 5.31053 7.08116 5.32516 6.95995 5.23504C6.83931 5.14533 6.82253 4.98571 6.92191 4.87757C6.92191 4.87757 6.92262 4.87681 6.92324 4.87608C6.92527 4.87376 6.92925 4.86908 6.93492 4.86197C6.94627 4.84779 6.96442 4.82402 6.98716 4.79018C7.03261 4.72256 7.09666 4.61473 7.16191 4.46339C7.29212 4.16138 7.42858 3.68259 7.42858 2.99999C7.42858 2.31739 7.29212 1.83863 7.16191 1.53661C7.09666 1.38529 7.03261 1.27744 6.98716 1.20983C6.96442 1.176 6.94627 1.1522 6.93492 1.13802C6.92925 1.13094 6.92527 1.12625 6.92324 1.12393C6.92262 1.12318 6.92191 1.12241 6.92191 1.12241" fill="white"/>
<path fill-rule="evenodd" clip-rule="evenodd" d="M6.24221 1.80029C6.38016 1.72456 6.55411 1.77367 6.63071 1.90998L6.38099 2.0471C6.63071 1.90998 6.63071 1.90998 6.63071 1.90998L6.631 1.91048L6.63129 1.911L6.63191 1.91215L6.6334 1.91483L6.63705 1.92173C6.63982 1.92703 6.64322 1.93372 6.64711 1.94181C6.6549 1.95801 6.6648 1.97985 6.67599 2.00753C6.69844 2.06294 6.72607 2.14159 6.75296 2.2452C6.80677 2.45262 6.85714 2.75858 6.85714 3.17645C6.85714 3.59437 6.80677 3.90033 6.75296 4.10773C6.72607 4.21136 6.69844 4.29002 6.67599 4.34543C6.6648 4.37311 6.6549 4.39492 6.64711 4.41112C6.64322 4.41922 6.63982 4.4259 6.63705 4.4312L6.6334 4.43811L6.63191 4.4408L6.631 4.44249C6.631 4.44249 6.63071 4.44295 6.38099 4.30584L6.63071 4.44295C6.55411 4.57928 6.38016 4.62839 6.24221 4.55264C6.10547 4.47758 6.05547 4.30795 6.12933 4.17219L6.13124 4.16835C6.13384 4.16294 6.13882 4.15211 6.14548 4.13568C6.15878 4.10285 6.17875 4.04741 6.19946 3.96748C6.24089 3.80784 6.28575 3.5491 6.28575 3.17645C6.28575 2.80384 6.24089 2.54511 6.19946 2.38545C6.17875 2.30554 6.15878 2.25008 6.14548 2.21725C6.13882 2.20082 6.13384 2.19001 6.13124 2.18459L6.12933 2.18074C6.05547 2.045 6.10547 1.87537 6.24221 1.80029Z" fill="white"/>
</svg>
