<svg width="7" height="8" viewBox="0 0 7 8" fill="none" xmlns="http://www.w3.org/2000/svg">
<path d="M7 3.60214C6.99983 4.21625 6.47346 4.58949 6.03525 4.70011L5.9137 4.73704C5.63258 4.83568 5.37499 5.02096 5.15861 5.24484L5.06973 5.34213C4.87339 5.56762 4.75558 5.77981 4.71801 5.87976C4.63581 6.10027 4.5609 6.50811 4.52582 6.9827L4.52582 6.98341C4.47767 7.62546 3.81974 8.13548 3.09237 7.96775L3.09085 7.96775L2.96019 7.93721L2.96095 7.9365C2.61498 7.85599 2.28622 7.61505 2.17471 7.23411L2.17471 7.2334C2.07462 6.88929 1.94168 6.24151 2.04785 5.45364C1.70974 5.46381 1.30272 5.44156 0.920529 5.32367L0.919769 5.32296C0.528526 5.20174 0.212376 4.87135 0.0765589 4.50978L0.0757993 4.50907C-0.0317274 4.2209 -0.0347595 3.88156 0.131254 3.55953L0.11758 3.52118L0.11758 3.51976C0.0677021 3.35753 0.0461729 3.18564 0.0461729 3.02333C0.0461961 2.861 0.067668 2.68912 0.11758 2.5269L0.11758 2.52619C0.128406 2.49145 0.142678 2.45507 0.157841 2.41753C0.0999694 2.17717 0.148322 1.94811 0.20418 1.79326L0.205699 1.78971C0.254756 1.65854 0.320804 1.53397 0.400169 1.41685C0.393377 1.36891 0.389534 1.32225 0.389534 1.27765C0.389549 1.06716 0.45458 0.856807 0.567292 0.673982L0.568051 0.674692C0.801867 0.29465 1.25831 0.000120783 1.86933 6.43434e-07L3.61652 4.9069e-07C3.95432 7.6956e-07 4.22978 0.042383 4.47417 0.120735L4.48024 0.122865C4.67555 0.188972 4.86229 0.275371 5.03707 0.379958L5.03707 0.379248L5.05758 0.391321C5.28718 0.520957 5.4772 0.630434 5.92889 0.674692L5.92965 0.674692C6.47457 0.728862 6.99996 1.14293 7 1.75136L7 3.60214ZM6.22212 1.75136C6.22207 1.57729 6.06703 1.41956 5.84761 1.39768L5.63111 1.37069C5.29261 1.31714 5.06208 1.2263 4.8707 1.12993L4.65496 1.01346L4.65116 1.01133L4.62762 0.997123L4.62154 0.994282C4.49615 0.9189 4.3623 0.856184 4.22196 0.80821L4.10118 0.77554C3.97201 0.745896 3.8161 0.727247 3.61652 0.727247L1.86933 0.727247C1.54559 0.727361 1.34064 0.875735 1.2411 1.0376C1.19026 1.12018 1.16743 1.20608 1.16741 1.27765C1.16741 1.31438 1.17334 1.34576 1.18261 1.36998L1.25477 1.55889L1.1226 1.71656C1.0436 1.81108 0.981673 1.91705 0.93952 2.02976C0.900016 2.14139 0.899665 2.23512 0.927366 2.29395L1.00333 2.45659L0.913692 2.61354C0.895366 2.64536 0.879063 2.68328 0.865074 2.72788C0.838176 2.81531 0.824077 2.91844 0.824053 3.02333C0.824053 3.12821 0.838203 3.23133 0.865074 3.31877L0.865074 3.31948C0.877276 3.35827 0.891977 3.3948 0.909134 3.42743L1.01017 3.61919L0.879508 3.79532C0.76277 3.95213 0.754562 4.1191 0.81038 4.26902C0.871452 4.43148 1.00042 4.55816 1.11576 4.61347L1.16438 4.63264C1.42498 4.71303 1.72299 4.73435 1.99771 4.72781L2.26283 4.7129C2.3308 4.70708 2.3988 4.70025 2.46641 4.69159L3.02855 4.61915L2.89714 5.13547C2.70907 5.8753 2.79533 6.51824 2.8865 6.89677L2.92524 7.04236C2.95155 7.13185 3.0329 7.20433 3.14858 7.23127L3.14934 7.23198L3.27848 7.26252L3.27848 7.26181C3.50528 7.31414 3.73274 7.15524 3.74946 6.93228C3.78623 6.43496 3.86787 5.95127 3.98419 5.63971L3.98419 5.639C4.06606 5.42106 4.27188 5.07794 4.58052 4.75764L4.58128 4.75764C4.89092 4.4372 5.31364 4.12912 5.83242 3.99772C6.06474 3.93906 6.22194 3.77415 6.22212 3.60214L6.22212 1.75136Z" fill="black"/>
</svg>
