<svg width="36" height="8" viewBox="0 0 36 8" fill="none" xmlns="http://www.w3.org/2000/svg">
<path d="M3.88732 2.21277H7.60563V5.95745H3.88732V2.21277Z" fill="white"/>
<path d="M5.99403 7.98975L3.63891 7.94633C2.87636 7.93123 2.11193 7.96144 1.36436 7.80477C0.227085 7.57071 0.14652 6.42306 0.0622081 5.46039C-0.0539552 4.10699 -0.00898878 2.72905 0.210223 1.38698C0.33388 0.633836 0.821016 0.184591 1.5742 0.135514C4.11668 -0.0419187 6.67602 -0.0211553 9.21288 0.0618984C9.4808 0.0694487 9.7506 0.110976 10.0148 0.158165C11.3188 0.38845 11.3507 1.689 11.435 2.78379C11.5193 3.88992 11.4837 5.00171 11.3226 6.10028C11.1933 7.01009 10.946 7.77268 9.90236 7.84629C8.59459 7.94256 7.31679 8.01995 6.00527 7.99541C6.00527 7.98975 5.99778 7.98975 5.99403 7.98975ZM4.60944 5.6869C5.59495 5.11685 6.56173 4.55623 7.54162 3.98996C6.55424 3.41991 5.58933 2.8593 4.60944 2.29302V5.6869Z" fill="#FF0000"/>
<path d="M30.3864 6.95535C30.3415 7.14033 30.3021 7.28567 30.2628 7.44046H29.341V0.277076H30.4164V2.91969C30.4726 2.84796 30.5007 2.81776 30.5251 2.78568C30.7087 2.53085 30.9466 2.36474 31.2539 2.30057C31.7429 2.2043 32.1607 2.42137 32.3088 2.89515C32.4043 3.18962 32.4661 3.50484 32.4736 3.81252C32.4886 4.60342 32.4774 5.39243 32.4493 6.18333C32.438 6.42494 32.365 6.67221 32.2732 6.89872C31.9715 7.6462 30.986 7.75946 30.497 7.11202C30.467 7.07238 30.4389 7.02896 30.3864 6.95535ZM30.4389 6.29469C30.4389 6.50799 30.5513 6.63823 30.763 6.68731C30.971 6.73639 31.1396 6.65522 31.2239 6.4608C31.2595 6.37963 31.2951 6.29469 31.297 6.20975C31.3176 5.40942 31.3364 4.60908 31.342 3.80686C31.342 3.65774 31.3064 3.50296 31.2614 3.35761C31.1771 3.09524 30.9448 3.01785 30.7162 3.17074C30.5438 3.28777 30.4389 3.45388 30.4389 3.67473V6.29469ZM27.5161 2.4025H28.6421V7.44423H27.7634C27.7315 7.25359 27.6997 7.05728 27.6622 6.82699C27.6023 6.91571 27.5667 6.97234 27.5292 7.02896C27.2369 7.45367 26.8229 7.59901 26.3338 7.52162C25.916 7.45367 25.665 7.129 25.6088 6.59671C25.5919 6.43815 25.5844 6.2777 25.5844 6.11915C25.5807 4.93941 25.5844 3.75589 25.5844 2.57615V2.39872H26.7236V2.60447C26.7236 3.74457 26.7198 4.88278 26.7273 6.02288C26.7273 6.18521 26.7442 6.35321 26.7723 6.51554C26.8041 6.68165 26.924 6.74205 27.0852 6.73072C27.3456 6.70996 27.5255 6.51554 27.5255 6.25505V2.62523C27.5161 2.55161 27.5161 2.48366 27.5161 2.4025ZM19.7631 2.39872H20.8948V2.61202C20.8948 3.74645 20.891 4.87901 20.8985 6.00967C20.8985 6.172 20.9135 6.33999 20.9472 6.49855C20.9903 6.68542 21.099 6.74582 21.2845 6.72129C21.5412 6.68542 21.6967 6.5061 21.6986 6.24373V2.40627H22.8246V7.44423H21.9496C21.9178 7.25736 21.8859 7.06483 21.8447 6.82133C21.7885 6.90627 21.7566 6.95535 21.7248 7.00631C21.4325 7.43857 21.0222 7.59712 20.5219 7.51973C20.121 7.45933 19.8755 7.16109 19.8006 6.67221C19.78 6.51931 19.765 6.36831 19.765 6.21541C19.7612 4.99037 19.7612 3.75967 19.7612 2.53463L19.7631 2.39872ZM19.1823 5.09041C19.1786 5.2603 19.1673 5.43018 19.158 5.60006C19.1149 6.10971 19.0942 6.83265 18.6858 7.20451C18.4254 7.43857 18.0956 7.52351 17.7546 7.53483C17.6029 7.53861 17.4492 7.53861 17.2975 7.51785C16.5799 7.40837 16.2464 7.08936 16.1265 6.29469C15.9897 5.37733 15.9784 4.44486 16.1415 3.52749C16.3101 2.57804 16.8909 2.24205 17.794 2.30434C18.6371 2.36474 19.0137 2.92158 19.113 3.71437C19.1673 4.16927 19.1935 4.62984 19.1823 5.09041ZM18.0357 4.91676C18.0357 4.59398 18.0432 4.26932 18.0319 3.94654C18.0244 3.75967 18.0001 3.57091 17.9607 3.38593C17.9158 3.17263 17.7809 3.0707 17.6122 3.07448C17.4474 3.07825 17.3312 3.18018 17.2712 3.37838C17.2506 3.45199 17.2281 3.5275 17.2281 3.60111C17.2281 4.10698 17.2244 4.61474 17.2206 5.12062C17.2169 5.59251 17.1569 6.08706 17.305 6.53819C17.3499 6.67598 17.4661 6.75149 17.6178 6.75149C17.7659 6.75149 17.8633 6.67787 17.9176 6.54574C17.9607 6.44381 17.9982 6.33244 17.9982 6.22296C18.0113 5.78882 18.0357 5.35279 18.0357 4.91676ZM14.4739 3.9673C14.5732 3.47842 14.6669 3.00086 14.77 2.52141C14.8993 1.91172 15.0435 1.30203 15.1709 0.690457C15.2028 0.541338 15.2627 0.505474 15.4033 0.509249C15.7049 0.520574 16.0122 0.513024 16.3344 0.513024C16.2295 0.901866 16.1265 1.27183 16.0253 1.63614C15.7049 2.78001 15.3845 3.92766 15.0679 5.07531C15.0435 5.16403 15.0323 5.2603 15.0323 5.35468C15.0285 5.98135 15.0323 6.60614 15.0323 7.23282V7.43668H13.9325C13.9287 7.38005 13.9212 7.32343 13.9212 7.2668C13.9212 6.91193 13.8931 6.55518 13.925 6.20409C14.0055 5.36034 13.7395 4.58454 13.524 3.79931C13.2392 2.76114 12.9507 1.71919 12.6659 0.681019C12.6509 0.631942 12.6453 0.57909 12.6303 0.518687H13.7526C13.9887 1.66445 14.2266 2.81021 14.4739 3.9673ZM35.9923 5.28295H34.0962C34.1168 5.66613 34.1243 6.03043 34.1636 6.39096C34.1917 6.64201 34.3285 6.7496 34.544 6.75149C34.7688 6.75526 34.8999 6.64201 34.9524 6.39285C34.9693 6.31168 34.9805 6.23051 34.988 6.14746C34.9955 6.07385 34.9992 5.99457 35.0049 5.88886C35.3253 5.90585 35.6381 5.92473 35.9473 5.93794C36.1272 6.4759 35.803 7.16676 35.2578 7.38005C34.8288 7.54994 34.3885 7.54994 33.95 7.41969C33.6259 7.32343 33.3842 7.11579 33.2755 6.79679C33.1744 6.49855 33.0788 6.1871 33.0582 5.87565C33.002 5.1074 32.9814 4.33161 33.0975 3.56147C33.1181 3.43312 33.1537 3.31042 33.1931 3.18584C33.3505 2.67242 33.6933 2.35719 34.2236 2.30434C34.5121 2.27603 34.81 2.28735 35.0948 2.33643C35.5557 2.4176 35.8011 2.7517 35.9079 3.18962C35.9567 3.39536 35.9923 3.60677 35.9997 3.8163C36.0016 4.29763 35.9923 4.77519 35.9923 5.28295ZM34.9149 4.62041C34.9149 4.241 34.9187 3.88425 34.9112 3.52561C34.9112 3.44067 34.8793 3.35195 34.8475 3.27078C34.7838 3.11223 34.6508 3.06881 34.4915 3.06881C34.3322 3.06881 34.2311 3.14998 34.1917 3.29532C34.0718 3.73135 34.1112 4.17682 34.1149 4.62418C34.4016 4.62041 34.662 4.62041 34.9149 4.62041Z" fill="white"/>
<path d="M23.6939 1.43794H22.5791V0.528127H25.9067V1.43228H24.7994V7.43668H23.6958L23.6939 1.43794Z" fill="white"/>
</svg>
