<svg width="7" height="7" viewBox="0 0 7 7" fill="none" xmlns="http://www.w3.org/2000/svg">
<path d="M2.64474 0.660479L1.12323 0.664569L3.00868 2.57656C3.1344 2.70433 3.13439 2.91144 3.00868 3.0392C2.88298 3.16697 2.67922 3.16697 2.5535 3.0392L0.648088 1.13309L0.656941 2.71306C0.659838 2.84523 0.556827 2.9604 0.426615 2.95746L0.251335 2.95713C0.121122 2.95386 0.013594 2.87533 0.0106968 2.74315L0.00393679 0.381219L0.0127893 0.375012L7.40299e-05 0.255418C-0.00120355 0.188999 0.0139157 0.129779 0.0562569 0.0874188C0.0976223 0.0445477 0.156371 -0.00174867 0.221236 5.08388e-05L0.359013 0.00283181C0.359013 0.00283181 0.362876 0.00381328 0.365452 0.00397687H2.67419C2.80407 0.00692152 2.91161 0.116201 2.91483 0.248557L2.91515 0.416554C2.89535 0.57213 2.77479 0.663577 2.64474 0.660479Z" fill="white"/>
<path d="M4.32318 6.33952L5.84469 6.33543L3.95923 4.42344C3.83352 4.29567 3.83353 4.08856 3.95923 3.9608C4.08494 3.83303 4.2887 3.83303 4.41442 3.9608L6.31983 5.86691L6.31098 4.28694C6.30808 4.15477 6.41109 4.0396 6.5413 4.04254L6.71658 4.04287C6.8468 4.04614 6.95432 4.12467 6.95722 4.25685L6.96398 6.61878L6.95513 6.62499L6.96784 6.74458C6.96912 6.811 6.954 6.87022 6.91166 6.91258C6.8703 6.95545 6.81155 7.00175 6.74668 6.99995L6.60891 6.99717C6.60891 6.99717 6.60504 6.99619 6.60247 6.99602H4.29373C4.16385 6.99308 4.05631 6.8838 4.05309 6.75144L4.05277 6.58345C4.07257 6.42787 4.19312 6.33642 4.32318 6.33952Z" fill="white"/>
</svg>
