<svg width="9" height="7" viewBox="0 0 9 7" fill="none" xmlns="http://www.w3.org/2000/svg">
<path d="M1.55556 5.05556C1.55556 4.84077 1.72967 4.66667 1.94444 4.66667H5.05556C5.27034 4.66667 5.44444 4.84077 5.44444 5.05556C5.44444 5.27034 5.27034 5.44444 5.05556 5.44444H1.94444C1.72967 5.44444 1.55556 5.27034 1.55556 5.05556Z" fill="white"/>
<path d="M6.61111 3.11111C6.82589 3.11111 7 3.28522 7 3.5C7 3.71478 6.82589 3.88889 6.61111 3.88889H3.5C3.28522 3.88889 3.11111 3.71478 3.11111 3.5C3.11111 3.28522 3.28522 3.11111 3.5 3.11111H6.61111Z" fill="white"/>
<path d="M5.83333 5.05556C5.83333 4.84077 6.00744 4.66667 6.22222 4.66667H6.61111C6.82589 4.66667 7 4.84077 7 5.05556C7 5.27034 6.82589 5.44444 6.61111 5.44444H6.22222C6.00744 5.44444 5.83333 5.27034 5.83333 5.05556Z" fill="white"/>
<path d="M2.33333 3.11111C2.54811 3.11111 2.72222 3.28522 2.72222 3.5C2.72222 3.71478 2.54811 3.88889 2.33333 3.88889H1.94444C1.72967 3.88889 1.55556 3.71478 1.55556 3.5C1.55556 3.28522 1.72967 3.11111 1.94444 3.11111H2.33333Z" fill="white"/>
<path fill-rule="evenodd" clip-rule="evenodd" d="M1.16667 0C0.522336 0 0 0.522336 0 1.16667V5.83333C0 6.47768 0.522336 7 1.16667 7H7.38889C8.03324 7 8.55556 6.47768 8.55556 5.83333V1.16667C8.55556 0.522336 8.03324 0 7.38889 0H1.16667ZM7.38889 0.777778H1.16667C0.951891 0.777778 0.777778 0.951891 0.777778 1.16667V5.83333C0.777778 6.04812 0.951891 6.22222 1.16667 6.22222H7.38889C7.60367 6.22222 7.77778 6.04812 7.77778 5.83333V1.16667C7.77778 0.951887 7.60367 0.777778 7.38889 0.777778Z" fill="white"/>
</svg>
