<svg width="15" height="15" viewBox="0 0 15 15" fill="none" xmlns="http://www.w3.org/2000/svg">
<path d="M6.74911 0.497815C7.02296 -0.160746 7.94775 -0.1659 8.23178 0.482366L8.23851 0.498126L9.6916 3.9968V3.99685C9.80884 4.27915 10.0838 4.46305 10.3887 4.46305H14.2099C14.9132 4.46305 15.2638 5.3158 14.7675 5.81369L14.7675 5.81371L11.677 8.91429C11.4831 9.10881 11.4095 9.39349 11.4848 9.65813L12.7105 13.9618C12.9178 14.6896 12.1087 15.2791 11.483 14.8606C11.4827 14.8604 11.4824 14.8603 11.4822 14.8601L11.4691 14.8513L7.91265 12.4727L7.91263 12.4727C7.65896 12.303 7.3285 12.303 7.07484 12.4727L7.07481 12.4727L3.51043 14.8567L3.5104 14.8567C2.88098 15.2777 2.07153 14.6831 2.27896 13.9548L2.28454 13.9352L2.28463 13.9349L3.50262 9.65813C3.57796 9.39357 3.50443 9.10886 3.31048 8.91429L0.235215 5.82903C-0.267307 5.32487 0.0887285 4.46305 0.799186 4.46305H4.59879C4.90366 4.46305 5.17864 4.27913 5.29588 3.9968L6.74898 0.498126L6.74911 0.497815ZM6.6901 4.57963C6.33833 5.42664 5.51341 5.97837 4.59879 5.97837H2.5201L4.37849 7.8428C4.96028 8.42648 5.18095 9.28068 4.95491 10.0744L4.25306 12.5388L6.23698 11.2119L6.25486 11.2001C7.01348 10.7029 7.9954 10.7069 8.75049 11.2119L10.7344 12.5388L10.0326 10.0744L10.0326 10.0744C9.80658 9.28075 10.0271 8.42653 10.609 7.8428L12.4673 5.97837H10.3887C9.47403 5.97836 8.64911 5.42663 8.29736 4.57961L7.49373 2.64466L6.6901 4.57963Z" fill="#878787"/>
</svg>
