<svg width="67" height="67" viewBox="0 0 67 67" fill="none" xmlns="http://www.w3.org/2000/svg">
<g filter="url(#filter0_d_1436_6001)">
<path d="M7.12935 6.853C6.46043 4.57464 8.578 2.45908 10.8557 3.13019L52.5088 15.4028C54.8342 16.0879 55.4287 19.1054 53.537 20.6214L45.2087 27.2959C43.8151 28.4127 43.6999 30.4923 44.9617 31.7563L58.9911 45.8105C60.1601 46.9817 60.1601 48.8783 58.9911 50.0494L53.9755 55.0739C52.8035 56.2479 50.9011 56.2479 49.7291 55.0739L35.7155 41.0355C34.4508 39.7685 32.3652 39.884 31.2481 41.2828L24.6024 49.6047C23.0873 51.5019 20.0636 50.9073 19.3797 48.5777L7.12935 6.853Z" fill="white"/>
<path d="M7.12935 6.853C6.46043 4.57464 8.578 2.45908 10.8557 3.13019L52.5088 15.4028C54.8342 16.0879 55.4287 19.1054 53.537 20.6214L45.2087 27.2959C43.8151 28.4127 43.6999 30.4923 44.9617 31.7563L58.9911 45.8105C60.1601 46.9817 60.1601 48.8783 58.9911 50.0494L53.9755 55.0739C52.8035 56.2479 50.9011 56.2479 49.7291 55.0739L35.7155 41.0355C34.4508 39.7685 32.3652 39.884 31.2481 41.2828L24.6024 49.6047C23.0873 51.5019 20.0636 50.9073 19.3797 48.5777L7.12935 6.853Z" stroke="#CF00FF" stroke-width="6"/>
</g>
<defs>
<filter id="filter0_d_1436_6001" x="0" y="0" width="66.8679" height="66.9543" filterUnits="userSpaceOnUse" color-interpolation-filters="sRGB">
<feFlood flood-opacity="0" result="BackgroundImageFix"/>
<feColorMatrix in="SourceAlpha" type="matrix" values="0 0 0 0 0 0 0 0 0 0 0 0 0 0 0 0 0 0 127 0" result="hardAlpha"/>
<feOffset dy="4"/>
<feGaussianBlur stdDeviation="2"/>
<feComposite in2="hardAlpha" operator="out"/>
<feColorMatrix type="matrix" values="0 0 0 0 0 0 0 0 0 0 0 0 0 0 0 0 0 0 0.25 0"/>
<feBlend mode="normal" in2="BackgroundImageFix" result="effect1_dropShadow_1436_6001"/>
<feBlend mode="normal" in="SourceGraphic" in2="effect1_dropShadow_1436_6001" result="shape"/>
</filter>
</defs>
</svg>
