<svg width="16" height="16" viewBox="0 0 16 16" fill="none" xmlns="http://www.w3.org/2000/svg">
<path d="M7 0C5.89543 0 5 0.89543 5 2H9C9 0.89543 8.10457 0 7 0Z" fill="#878787"/>
<path d="M0 14V11H1C2.10457 11 3 10.1046 3 9C3 7.89543 2.10457 7 1 7H0V4C0 2.89543 0.895431 2 2 2V3C1.44772 3 1 3.44772 1 4V6C2.65685 6 4 7.34315 4 9L3.99609 9.1543C3.91579 10.7394 2.60511 12 1 12V14C1 14.5177 1.39333 14.9438 1.89746 14.9951L2 15H12C12.5523 15 13 14.5523 13 14V4C13 3.44772 12.5523 3 12 3V2C13.1046 2 14 2.89543 14 4V14C14 15.1046 13.1046 16 12 16H2C0.89543 16 0 15.1046 0 14ZM12 2V3H2V2H12Z" fill="#878787"/>
<path d="M16 9C16 7.89543 15.1046 7 14 7V11C15.1046 11 16 10.1046 16 9Z" fill="#878787"/>
</svg>
