<svg width="47" height="18" viewBox="0 0 47 18" fill="none" xmlns="http://www.w3.org/2000/svg">
<path d="M39.0497 17.1027C37.8479 17.1027 36.7385 16.8947 35.7216 16.4787C34.7047 16.0473 33.8187 15.4464 33.0638 14.676C32.3242 13.9056 31.7464 12.9965 31.3304 11.9488C30.9144 10.8856 30.7063 9.73006 30.7063 8.48202C30.7063 7.23399 30.9067 6.0938 31.3073 5.06148C31.7233 4.02915 32.3011 3.1355 33.0406 2.38051C33.7956 1.61012 34.6816 1.02462 35.6985 0.624018C36.7154 0.208006 37.8325 0 39.0497 0C40.421 0 41.6536 0.269637 42.7476 0.808912C43.857 1.33278 44.7583 2.08006 45.4517 3.05075C46.1604 4.00604 46.5919 5.13082 46.7459 6.42507H43.2792C43.0789 5.23867 42.5935 4.34501 41.8231 3.74411C41.0527 3.12779 40.136 2.81964 39.0728 2.81964C38.1329 2.81964 37.3009 3.04305 36.5767 3.48988C35.868 3.93671 35.3133 4.58384 34.9127 5.43127C34.5121 6.26329 34.3118 7.27251 34.3118 8.45891C34.3118 9.66072 34.5121 10.7008 34.9127 11.579C35.3287 12.4418 35.8988 13.1121 36.623 13.5897C37.3471 14.052 38.1792 14.2831 39.119 14.2831C40.1205 14.2831 41.0065 13.9826 41.7769 13.3817C42.5473 12.7808 43.048 11.8872 43.2792 10.7008H46.7922C46.5919 11.995 46.1373 13.1275 45.4286 14.0982C44.7198 15.0535 43.8184 15.7931 42.7245 16.3169C41.6305 16.8408 40.4056 17.1027 39.0497 17.1027Z" fill="white"/>
<path d="M22.7302 13.7967V2.77235H25.3188V13.7967H22.7302ZM18.8012 9.5441V7.04803H29.2247V9.5441H18.8012Z" fill="white"/>
<path d="M3.5361 16.8748C2.45755 16.8748 1.59471 16.559 0.947584 15.9272C0.315861 15.2955 0 14.4481 0 13.3849C0 12.2602 0.331269 11.3896 0.993807 10.7733C1.67175 10.1416 2.66556 9.82573 3.97523 9.82573H5.33882V7.28344H3.97523C2.66556 7.28344 1.67175 6.97528 0.993807 6.35897C0.331269 5.72724 0 4.849 0 3.72422C0 2.66108 0.315861 1.81365 0.947584 1.18193C1.59471 0.550205 2.45755 0.234345 3.5361 0.234345C4.39894 0.234345 5.07689 0.396127 5.56994 0.719692C6.0784 1.04326 6.43278 1.47468 6.63308 2.01395C6.84879 2.55323 6.95665 3.14643 6.95665 3.79356V5.71184H9.49895V3.79356C9.49895 3.14643 9.5991 2.55323 9.7994 2.01395C10.0151 1.47468 10.3695 1.04326 10.8625 0.719692C11.371 0.396127 12.0567 0.234345 12.9195 0.234345C13.998 0.234345 14.8532 0.550205 15.4849 1.18193C16.132 1.81365 16.4556 2.66108 16.4556 3.72422C16.4556 4.849 16.1243 5.72724 15.4618 6.35897C14.7993 6.97528 13.8054 7.28344 12.4804 7.28344H11.1168V9.82573H12.4804C13.8054 9.82573 14.7993 10.1416 15.4618 10.7733C16.1243 11.3896 16.4556 12.2602 16.4556 13.3849C16.4556 14.4481 16.132 15.2955 15.4849 15.9272C14.8532 16.559 13.998 16.8748 12.9195 16.8748C12.0567 16.8748 11.371 16.713 10.8625 16.3895C10.3695 16.0659 10.0151 15.6345 9.7994 15.0952C9.5991 14.5559 9.49895 13.9627 9.49895 13.3156V11.3973H6.95665V13.3156C6.95665 13.9627 6.84879 14.5559 6.63308 15.0952C6.43278 15.6345 6.0784 16.0659 5.56994 16.3895C5.07689 16.713 4.39894 16.8748 3.5361 16.8748ZM11.1168 3.74734V5.71184H12.4804C13.297 5.71184 13.8902 5.55005 14.26 5.22649C14.6298 4.88752 14.8147 4.38676 14.8147 3.72422C14.8147 3.04628 14.6298 2.56093 14.26 2.26818C13.9056 1.97543 13.4588 1.82906 12.9195 1.82906C12.3186 1.82906 11.8641 2.00625 11.5559 2.36063C11.2631 2.6996 11.1168 3.16184 11.1168 3.74734ZM3.97523 5.71184H5.33882V3.74734C5.33882 3.16184 5.18474 2.6996 4.87659 2.36063C4.58384 2.00625 4.13701 1.82906 3.5361 1.82906C2.99683 1.82906 2.5423 1.97543 2.17251 2.26818C1.81813 2.56093 1.64094 3.04628 1.64094 3.72422C1.64094 4.38676 1.82583 4.88752 2.19562 5.22649C2.56541 5.55005 3.15861 5.71184 3.97523 5.71184ZM6.95665 9.82573H9.49895V7.28344H6.95665V9.82573ZM3.5361 15.2801C4.13701 15.2801 4.58384 15.1106 4.87659 14.7717C5.18474 14.4173 5.33882 13.9473 5.33882 13.3618V11.3973H3.97523C3.15861 11.3973 2.56541 11.5668 2.19562 11.9058C1.82583 12.2294 1.64094 12.7224 1.64094 13.3849C1.64094 14.0629 1.81813 14.5482 2.17251 14.841C2.5423 15.1337 2.99683 15.2801 3.5361 15.2801ZM11.1168 13.3618C11.1168 13.9473 11.2631 14.4173 11.5559 14.7717C11.8641 15.1106 12.3186 15.2801 12.9195 15.2801C13.4588 15.2801 13.9056 15.1337 14.26 14.841C14.6298 14.5482 14.8147 14.0629 14.8147 13.3849C14.8147 12.7224 14.6298 12.2294 14.26 11.9058C13.8902 11.5668 13.297 11.3973 12.4804 11.3973H11.1168V13.3618Z" fill="white"/>
</svg>
