<svg width="6" height="6" viewBox="0 0 6 6" fill="none" xmlns="http://www.w3.org/2000/svg">
<path d="M3 6C4.65685 6 6 4.65685 6 3C6 2.10393 5.65781 1.29908 5.03571 0.75L4.39286 1.39286C4.83844 1.78613 5.14286 2.36005 5.14286 3C5.14286 4.18347 4.18347 5.14286 3 5.14286C1.81653 5.14286 0.857143 4.18347 0.857143 3C0.857143 1.94959 1.61337 1.07495 2.61119 0.892299L2.45696 0.0491767C1.05937 0.304999 1.35859e-07 1.52832 7.15295e-08 3C-8.93879e-10 4.65685 1.34315 6 3 6Z" fill="#737A88"/>
<path d="M3.42857 -1.72005e-07L5.78571 -6.89714e-08L3.42857 2.35714L3.42857 -1.72005e-07Z" fill="#737A88"/>
</svg>
