<svg width="6" height="6" viewBox="0 0 6 6" fill="none" xmlns="http://www.w3.org/2000/svg">
<path d="M6 5.06915V0.93085C6 0.416606 5.5834 0 5.06915 0H3C2.86668 0 2.75887 0.10781 2.75887 0.241132C2.75887 0.374454 2.86668 0.482263 3 0.482263H5.06915C5.31675 0.482263 5.51775 0.68325 5.51775 0.93085V5.06915C5.51775 5.31675 5.31675 5.51775 5.06915 5.51775H0.93085C0.68324 5.51775 0.482263 5.31675 0.482263 5.06915V3C0.482263 2.86668 0.374454 2.75887 0.241132 2.75887C0.10781 2.75887 0 2.86668 0 3V5.06915C0 5.5834 0.416596 6 0.93085 6H5.06915C5.5834 6 6 5.5834 6 5.06915Z" fill="white"/>
<path d="M0.482263 1.62798V0.58801C0.482263 0.529855 0.52985 0.482263 0.58801 0.482263H1.62798C1.7613 0.482263 1.86911 0.374454 1.86911 0.241132C1.86911 0.10781 1.7613 0 1.62798 0H0.58801C0.263201 0 0 0.263215 0 0.58801V1.62798C1.75212e-05 1.76127 0.107835 1.86909 0.241132 1.86911C0.374443 1.86911 0.482246 1.76128 0.482263 1.62798Z" fill="white"/>
<path d="M0.765845 0.429035C0.671575 0.334762 0.51863 0.334762 0.424356 0.429035C0.330488 0.52323 0.330488 0.675655 0.424356 0.76985L3.16908 3.51458C3.26327 3.60845 3.4157 3.60845 3.50989 3.51458C3.60417 3.42031 3.60417 3.26736 3.50989 3.17309L0.765845 0.429035Z" fill="white"/>
</svg>
