<svg width="9" height="8" viewBox="0 0 9 8" fill="none" xmlns="http://www.w3.org/2000/svg">
<path d="M1.58424e-06 6.09015V1.91042C1.58424e-06 1.66013 -0.000436175 1.44607 0.0136105 1.27095C0.0280638 1.09085 0.0600466 0.913594 0.145163 0.743481C0.272865 0.488303 0.477062 0.28001 0.72921 0.149153C0.897778 0.0617073 1.07361 0.029091 1.25145 0.0142867C1.42413 -7.75637e-05 1.63519 8.85692e-09 1.88086 8.85692e-09H1.8837L2.82781 0.00685764L2.82724 0.00742911C3.02608 0.00740406 3.19698 0.00411495 3.36253 0.0445746L3.46403 0.0737195C3.56419 0.106869 3.66051 0.151962 3.75038 0.208015C3.8955 0.298612 4.01437 0.423465 4.15581 0.567469V0.56804L4.21195 0.625187H4.21251C4.38336 0.799131 4.42104 0.833546 4.45804 0.856632H4.45747C4.49931 0.882724 4.54511 0.90164 4.59243 0.913208L4.62758 0.919494C4.67024 0.924604 4.74309 0.925775 4.92414 0.92578L7.11801 0.919494H7.11914C7.36481 0.919494 7.57586 0.919416 7.74855 0.93378C7.9264 0.948584 8.10222 0.981194 8.27079 1.06865C8.52292 1.19949 8.72713 1.40774 8.85484 1.66298C8.93998 1.83311 8.97193 2.01032 8.98639 2.19044C9.00044 2.36558 9 2.57959 9 2.82991V6.09015C9 6.34042 9.00044 6.55451 8.98639 6.72962C8.97193 6.90967 8.93996 7.08701 8.85484 7.25709C8.72712 7.51222 8.52293 7.72061 8.27079 7.85141C8.10221 7.93888 7.92641 7.97148 7.74855 7.98628C7.57586 8.00065 7.36481 8 7.11914 8H1.88086C1.63519 8 1.42413 8.00065 1.25145 7.98628C1.07359 7.97148 0.897789 7.93887 0.72921 7.85141C0.477024 7.72059 0.272877 7.51218 0.145163 7.25709C0.0600418 7.08701 0.0280746 6.90967 0.0136105 6.72962C-0.000442177 6.55451 1.46879e-06 6.34042 1.58424e-06 6.09015ZM0.870969 6.09015C0.870969 6.35475 0.871188 6.52723 0.881743 6.65876C0.891895 6.78515 0.909287 6.83508 0.922569 6.86163C0.968009 6.95242 1.04026 7.02535 1.12784 7.07079C1.15243 7.08354 1.20013 7.1011 1.32346 7.11136C1.45198 7.12204 1.62083 7.12222 1.88086 7.12222H7.11914C7.37917 7.12222 7.54802 7.12204 7.67654 7.11136C7.79988 7.1011 7.84758 7.08354 7.87216 7.07079C7.95975 7.02533 8.03202 6.95238 8.07743 6.86163C8.09071 6.83508 8.1081 6.78516 8.11826 6.65876C8.12881 6.52723 8.12903 6.35475 8.12903 6.09015V2.82991C8.12903 2.56532 8.12881 2.39283 8.11826 2.2613C8.10813 2.13514 8.09071 2.08505 8.07743 2.05843C8.03202 1.96767 7.95983 1.89418 7.87216 1.8487C7.84758 1.83595 7.79988 1.81839 7.67654 1.80813C7.54808 1.79746 7.37951 1.79727 7.11971 1.79727L4.92641 1.80413H4.92471C4.72489 1.80413 4.55333 1.80698 4.38716 1.76641C4.28441 1.74129 4.18497 1.70363 4.09117 1.65497L3.99931 1.60297C3.9267 1.55767 3.86072 1.50353 3.79517 1.44296L3.59331 1.24295L3.53661 1.18523V1.18466C3.36618 1.01114 3.32861 0.977419 3.29165 0.954353C3.24983 0.928277 3.20455 0.908769 3.15726 0.897206C3.11565 0.887043 3.06616 0.884634 2.82441 0.884634H2.82157L1.87859 0.877777C1.61974 0.877778 1.45164 0.877989 1.32346 0.888634C1.20013 0.898894 1.15243 0.916452 1.12784 0.929209C1.04023 0.974659 0.968012 1.04763 0.922569 1.13837C0.909275 1.16493 0.891898 1.21526 0.881743 1.34181C0.871202 1.47333 0.870969 1.64588 0.870969 1.91042V6.09015Z" fill="#CF00FF"/>
</svg>
