<svg width="4" height="4" viewBox="0 0 4 4" fill="none" xmlns="http://www.w3.org/2000/svg">
<path d="M0.312644 0.0532348L2 1.74064L3.68736 0.0532348C3.75288 -0.0122849 3.85597 -0.0173247 3.92727 0.0381152L3.94677 0.0556047C4.01774 0.126584 4.01774 0.241666 3.94677 0.312645L2.25936 2L3.94677 3.68735C4.01228 3.75287 4.01733 3.85597 3.96189 3.92727L3.94439 3.94676C3.87341 4.01774 3.75834 4.01774 3.68736 3.94676L2 2.25936L0.312644 3.94676C0.247124 4.01228 0.144027 4.01732 0.0727262 3.96188L0.053235 3.94439C-0.0177448 3.87342 -0.0177448 3.75833 0.053235 3.68735L1.74064 2L0.053235 0.312645C-0.0122847 0.247126 -0.0173251 0.144028 0.0381147 0.0727274L0.055609 0.0532348C0.126589 -0.0177449 0.241664 -0.0177449 0.312644 0.0532348ZM0.181752 0.184125L1.99768 2L0.181752 3.81587L0.184126 3.81824L2 2.00232L3.81587 3.81824L3.81825 3.81587L2.00232 2L3.81825 0.184125L3.81587 0.181755L2 1.99768L0.184126 0.181755L0.181752 0.184125Z" fill="#1C1C1F" fill-opacity="0.5"/>
</svg>
