<svg width="10" height="10" viewBox="0 0 10 10" fill="none" xmlns="http://www.w3.org/2000/svg">
<path d="M9.70588 4.70588C9.8683 4.70591 10 4.83758 10 5C10 5.16242 9.8683 5.2941 9.70588 5.29412H5.52277C5.36033 5.29412 5.22865 5.16244 5.22865 5C5.22865 4.83756 5.36033 4.70588 5.52277 4.70588H9.70588Z" fill="#737A88"/>
<path d="M7.92883 3.22832C8.04369 3.11347 8.22987 3.11347 8.34473 3.22832L9.86816 4.75119C10.0081 4.89111 10.008 5.11846 9.86816 5.25843L8.34473 6.78129C8.22987 6.89615 8.04369 6.89615 7.92883 6.78129C7.81407 6.66642 7.814 6.48022 7.92883 6.36539L9.28912 5.00452L7.92883 3.64423C7.81398 3.52937 7.81398 3.34319 7.92883 3.22832Z" fill="#737A88"/>
<path d="M6.79742 1.33961V1.07824C6.79732 0.807652 6.57803 0.588306 6.30742 0.588235H1.33961C0.924689 0.588385 0.588371 0.924713 0.588233 1.33961V8.66039C0.58837 9.0753 0.924686 9.41162 1.33961 9.41177H6.30742C6.57802 9.41169 6.79732 9.19234 6.79742 8.92176V8.66039C6.79742 8.49798 6.92914 8.36631 7.09154 8.36627C7.25398 8.36627 7.38566 8.49795 7.38566 8.66039V8.92176C7.38555 9.51722 6.90288 9.99993 6.30742 10H1.33961C0.59983 9.99985 0.000137 9.40019 0 8.66039V1.33961C0.000138064 0.599828 0.599828 0.000149576 1.33961 0H6.30742C6.90288 7.09303e-05 7.38555 0.482759 7.38566 1.07824V1.33961C7.38566 1.50205 7.25398 1.63373 7.09154 1.63373C6.92914 1.63369 6.79742 1.50203 6.79742 1.33961Z" fill="#737A88"/>
</svg>
