<svg width="10" height="11" viewBox="0 0 10 11" fill="none" xmlns="http://www.w3.org/2000/svg">
<path d="M5.399 7.54709e-05C5.84234 7.54709e-05 6.1742 -0.00662294 6.46492 0.106252C6.70638 0.200024 6.91943 0.35182 7.08494 0.547198C7.28353 0.781742 7.38133 1.09154 7.52184 1.50779L7.58867 1.70515H9.6055C9.82352 1.70515 10 1.87733 10 2.08926C9.99988 2.3011 9.82345 2.47275 9.6055 2.47275H8.82357L8.38666 8.94329C8.36689 9.23635 8.35093 9.47849 8.32177 9.67466C8.29194 9.8752 8.2445 10.0586 8.14572 10.2299C7.99184 10.4966 7.75916 10.7122 7.47751 10.847C7.29594 10.9338 7.10519 10.9689 6.89925 10.985C6.6983 11.0007 6.45219 11 6.15523 11H3.84477C3.54781 11 3.30169 11.0007 3.10075 10.985C2.94617 10.9729 2.79996 10.9504 2.65998 10.9032L2.52249 10.847C2.24082 10.7122 2.00815 10.4966 1.85428 10.2299C1.75547 10.0586 1.70806 9.8752 1.67823 9.67466C1.64907 9.47849 1.63248 9.23634 1.6127 8.94329L1.17643 2.47275H0.3945C0.176553 2.47275 0.000115746 2.3011 0 2.08926C0 1.87733 0.176482 1.70515 0.3945 1.70515H2.41133L2.47815 1.50779C2.61865 1.09159 2.71642 0.781764 2.91506 0.547198C3.08058 0.351805 3.29365 0.200016 3.53508 0.106252C3.82579 -0.00662535 4.15766 7.54709e-05 4.601 7.54709e-05H5.399ZM2.40105 8.89332C2.42164 9.19833 2.4358 9.40515 2.45952 9.56473C2.48256 9.71969 2.51046 9.79911 2.54241 9.85453C2.61887 9.98708 2.73367 10.0931 2.87073 10.1587C2.92694 10.1856 3.00737 10.2076 3.16435 10.2199C3.32623 10.2326 3.53517 10.233 3.84477 10.233H6.15523C6.46482 10.233 6.67377 10.2326 6.83565 10.2199C6.99264 10.2076 7.07308 10.1856 7.12927 10.1587C7.26632 10.0931 7.38111 9.98709 7.45759 9.85453C7.48953 9.79909 7.51744 9.71967 7.54048 9.56473C7.5642 9.40515 7.57837 9.19832 7.59895 8.89332L8.03264 2.47275H1.96736L2.40105 8.89332ZM3.45412 8.34245V4.36332C3.45412 4.15139 3.63061 3.97921 3.84862 3.97921C4.06664 3.97921 4.24312 4.15139 4.24312 4.36332V8.34245C4.24312 8.55438 4.06664 8.72656 3.84862 8.72656C3.63061 8.72656 3.45412 8.55438 3.45412 8.34245ZM5.75687 8.34245V4.36332C5.75687 4.15139 5.93336 3.97921 6.15137 3.97921C6.36939 3.97921 6.54587 4.15139 6.54587 4.36332V8.34245C6.54587 8.55438 6.36939 8.72656 6.15137 8.72656C5.93336 8.72656 5.75687 8.55438 5.75687 8.34245ZM4.601 0.767047C4.08967 0.767047 3.94362 0.774056 3.82806 0.818886C3.71081 0.864422 3.60593 0.938429 3.52416 1.03499C3.44522 1.12823 3.39318 1.26074 3.24274 1.70515H6.7579C6.60743 1.26069 6.55478 1.12826 6.47584 1.03499C6.39405 0.93841 6.28917 0.864414 6.17193 0.818886C6.05637 0.774057 5.91032 0.767047 5.399 0.767047H4.601Z" fill="black"/>
</svg>
