<svg width="22" height="22" viewBox="0 0 22 22" fill="none" xmlns="http://www.w3.org/2000/svg">
<g filter="url(#filter0_d_1437_8050)">
<path d="M4.69579 1.52391C4.54682 1.01742 5.01742 0.546823 5.52392 0.695793L15.6447 3.6725C16.1622 3.82471 16.2944 4.4963 15.8732 4.83327L13.7717 6.51447C13.4613 6.76282 13.4356 7.22586 13.7167 7.50697L17.1376 10.9279C17.3981 11.1884 17.3981 11.6107 17.1376 11.8712L15.8712 13.1376C15.6107 13.3981 15.1884 13.3981 14.9279 13.1376L11.507 9.71673C11.2259 9.43562 10.7628 9.46127 10.5145 9.7717L8.83327 11.8732C8.4963 12.2944 7.82471 12.1622 7.6725 11.6447L4.69579 1.52391Z" fill="white"/>
<path d="M4.05595 1.7122C3.75801 0.699206 4.69921 -0.241989 5.7122 0.055951L15.833 3.03256C16.8679 3.33697 17.1322 4.68015 16.2898 5.35409L14.1884 7.03531L17.6093 10.4562C18.1302 10.9771 18.1302 11.8218 17.6093 12.3428L16.3428 13.6093C15.8218 14.1302 14.9771 14.1302 14.4562 13.6093L11.0353 10.1884L9.35409 12.2898C8.68015 13.1322 7.33697 12.8679 7.03256 11.833L4.05595 1.7122ZM8.31231 11.4565L9.99353 9.3551C10.4902 8.73423 11.4165 8.68279 11.9787 9.24501L15.3996 12.6661L16.6661 11.3996L13.245 7.97873C12.6828 7.41651 12.7342 6.49022 13.3551 5.99353L15.4565 4.31252L5.3357 1.3357L8.31231 11.4565Z" fill="#CF00FF"/>
</g>
<defs>
<filter id="filter0_d_1437_8050" x="0" y="0" width="22" height="22" filterUnits="userSpaceOnUse" color-interpolation-filters="sRGB">
<feFlood flood-opacity="0" result="BackgroundImageFix"/>
<feColorMatrix in="SourceAlpha" type="matrix" values="0 0 0 0 0 0 0 0 0 0 0 0 0 0 0 0 0 0 127 0" result="hardAlpha"/>
<feOffset dy="4"/>
<feGaussianBlur stdDeviation="2"/>
<feComposite in2="hardAlpha" operator="out"/>
<feColorMatrix type="matrix" values="0 0 0 0 0 0 0 0 0 0 0 0 0 0 0 0 0 0 0.25 0"/>
<feBlend mode="normal" in2="BackgroundImageFix" result="effect1_dropShadow_1437_8050"/>
<feBlend mode="normal" in="SourceGraphic" in2="effect1_dropShadow_1437_8050" result="shape"/>
</filter>
</defs>
</svg>
