<svg width="4" height="4" viewBox="0 0 4 4" fill="none" xmlns="http://www.w3.org/2000/svg">
<path d="M2 4C3.10457 4 4 3.10457 4 2C4 1.40262 3.77187 0.866054 3.35714 0.5L2.92857 0.928572C3.22562 1.19076 3.42857 1.57336 3.42857 2C3.42857 2.78898 2.78898 3.42857 2 3.42857C1.21102 3.42857 0.571428 2.78898 0.571428 2C0.571428 1.29973 1.07558 0.716634 1.74079 0.594866L1.63797 0.0327847C0.706244 0.203333 -1.78814e-07 1.01888 -1.78814e-07 2C-1.78814e-07 3.10457 0.89543 4 2 4Z" fill="#737A88"/>
<path d="M2.28571 1.63485e-07L3.85714 2.32174e-07L2.28571 1.57143V1.63485e-07Z" fill="#737A88"/>
</svg>
