<svg width="9" height="9" viewBox="0 0 9 9" fill="none" xmlns="http://www.w3.org/2000/svg">
<path d="M4.75596 0.112639C4.69038 0.0408775 4.5977 0 4.5005 0C4.4033 0 4.31062 0.0408775 4.24504 0.112639L2.39888 2.13296C2.26988 2.27413 2.27968 2.4932 2.42077 2.62227C2.56187 2.75134 2.78082 2.74153 2.90982 2.60036L4.15435 1.23842V6.34958C4.15435 6.54085 4.30933 6.69592 4.5005 6.69592C4.69167 6.69592 4.84666 6.54085 4.84666 6.34958V1.23842L6.09119 2.60036C6.22019 2.74153 6.43915 2.75134 6.58024 2.62227C6.72133 2.4932 6.73112 2.27413 6.60212 2.13296L4.75596 0.112639Z" fill="#1C1C1F"/>
<path d="M0.692308 5.88293C0.692308 5.69166 0.537333 5.53659 0.346154 5.53659C0.15498 5.53659 2.41825e-07 5.69166 2.41825e-07 5.88293V5.90829C-8.98894e-06 6.53983 -1.82558e-05 7.04885 0.0537787 7.44922C0.109634 7.86488 0.229122 8.21482 0.506931 8.49277C0.78474 8.77077 1.13453 8.89033 1.54996 8.9462C1.9501 9 2.45886 9 3.09006 9H5.90995C6.54115 9 7.04991 9 7.45006 8.9462C7.86549 8.89033 8.21525 8.77077 8.49309 8.49277C8.77089 8.21482 8.89038 7.86488 8.94623 7.44922C9 7.04885 9 6.53983 9 5.90829V5.88293C9 5.69166 8.84502 5.53659 8.65385 5.53659C8.46268 5.53659 8.30769 5.69166 8.30769 5.88293C8.30769 6.54578 8.30695 7.00808 8.26011 7.35691C8.21455 7.69577 8.13129 7.87518 8.00354 8.003C7.87578 8.13082 7.69648 8.21413 7.3578 8.25971C7.00915 8.30658 6.54711 8.30732 5.88462 8.30732H3.11538C2.45289 8.30732 1.99083 8.30658 1.64221 8.25971C1.30355 8.21413 1.1242 8.13082 0.996466 8.003C0.868731 7.87518 0.785446 7.69577 0.739916 7.35691C0.693042 7.00808 0.692308 6.54578 0.692308 5.88293Z" fill="#1C1C1F"/>
</svg>
