<svg width="6" height="6" viewBox="0 0 6 6" fill="none" xmlns="http://www.w3.org/2000/svg">
<path fill-rule="evenodd" clip-rule="evenodd" d="M1.66667 0.666667H4.265C4.63667 0.666667 4.77133 0.705333 4.907 0.778C5.04267 0.850667 5.14933 0.957333 5.222 1.093C5.29467 1.22867 5.33333 1.36333 5.33333 1.735V4.33333C5.33333 4.42174 5.36845 4.50652 5.43096 4.56904C5.49348 4.63155 5.57826 4.66667 5.66667 4.66667C5.75507 4.66667 5.83986 4.63155 5.90237 4.56904C5.96488 4.50652 6 4.42174 6 4.33333V1.70933C6 1.115 5.938 0.899333 5.822 0.682C5.70833 0.467269 5.53273 0.29167 5.318 0.178C5.10067 0.062 4.885 0 4.29067 0H1.66667C1.57826 0 1.49348 0.0351189 1.43096 0.0976311C1.36845 0.160143 1.33333 0.244928 1.33333 0.333333C1.33333 0.421739 1.36845 0.506523 1.43096 0.569036C1.49348 0.631548 1.57826 0.666667 1.66667 0.666667ZM4.24033 1.44467C4.10467 1.372 3.97 1.33333 3.59833 1.33333H1.06833C0.696667 1.33333 0.562 1.372 0.426333 1.44467C0.292128 1.51571 0.182379 1.62546 0.111333 1.75967C0.0386667 1.89533 0 2.03 0 2.40167V4.93167C0 5.303 0.0386667 5.438 0.111333 5.57367C0.184 5.70933 0.290667 5.816 0.426333 5.88867C0.562 5.96133 0.696667 6 1.06833 6H3.59833C3.96967 6 4.10467 5.96133 4.24033 5.88867C4.376 5.816 4.48267 5.70933 4.55533 5.57367C4.628 5.438 4.66667 5.30333 4.66667 4.93167V2.40167C4.66667 2.03 4.628 1.89533 4.55533 1.75967C4.48429 1.62546 4.37454 1.51571 4.24033 1.44467Z" fill="#1C1C1F" fill-opacity="0.5"/>
</svg>
