<svg width="5" height="5" viewBox="0 0 5 5" fill="none" xmlns="http://www.w3.org/2000/svg">
<path d="M0.0610198 0.0563256C0.14238 -0.0187752 0.274258 -0.0187752 0.355618 0.0563256L4.93898 4.28709C5.02034 4.3622 5.02034 4.48393 4.93898 4.55903C4.85762 4.63413 4.72574 4.63413 4.64438 4.55903L0.0610198 0.328261C-0.0203399 0.25316 -0.0203399 0.131426 0.0610198 0.0563256Z" fill="black"/>
<path d="M2.55625 4.84015C2.5563 4.92848 2.62412 5.00005 2.70772 5C2.79132 4.99995 2.85907 4.92832 2.85904 4.84L2.55625 4.84015ZM2.85836 3.43604C2.85832 3.34772 2.7905 3.27615 2.70688 3.27619C2.62328 3.27624 2.55553 3.34788 2.55558 3.43621L2.85836 3.43604ZM2.27075 0.319885L3.15106 0.32037L3.15122 0.000516341L2.2709 3.08149e-05L2.27075 0.319885ZM3.30253 3.27647L2.12678 3.27584L2.12662 3.5957L3.30238 3.59633L3.30253 3.27647ZM3.79174 1.37046L3.62091 1.76814L3.89664 1.90031L4.06746 1.50265L3.79174 1.37046ZM1.80504 1.76465L1.63362 1.37415L1.35894 1.50871L1.53036 1.89921L1.80504 1.76465ZM1.77145 2.63145C1.84499 2.4946 1.90259 2.39219 1.92029 2.27739L1.62145 2.22599C1.61453 2.27083 1.59295 2.31574 1.50815 2.47353L1.77145 2.63145ZM1.53036 1.89921C1.60266 2.06394 1.62073 2.11066 1.62415 2.15601L1.92597 2.13056C1.91722 2.01464 1.86776 1.90755 1.80504 1.76465L1.53036 1.89921ZM1.92029 2.27739C1.92777 2.22887 1.92967 2.17957 1.92597 2.13056L1.62415 2.15601C1.62592 2.17938 1.62501 2.20287 1.62145 2.22599L1.92029 2.27739ZM3.62091 1.76814C3.55952 1.91107 3.51103 2.01829 3.50315 2.13409L3.80517 2.157C3.80824 2.11175 3.82586 2.0651 3.89664 1.90031L3.62091 1.76814ZM3.9214 2.47227C3.83669 2.31484 3.81509 2.26998 3.80811 2.22516L3.50935 2.27709C3.52719 2.39162 3.5847 2.49377 3.65817 2.63035L3.9214 2.47227ZM3.50315 2.13409C3.49991 2.18184 3.50198 2.22983 3.50935 2.27709L3.80811 2.22516C3.8046 2.20263 3.80362 2.17976 3.80517 2.157L3.50315 2.13409ZM2.12678 3.27584C1.94224 3.27574 1.81685 3.27542 1.72529 3.26443C1.6334 3.2534 1.60704 3.23444 1.59704 3.22401L1.38431 3.45161C1.46793 3.53884 1.57878 3.56875 1.6911 3.58224C1.80373 3.59576 1.94956 3.5956 2.12662 3.5957L2.12678 3.27584ZM1.50815 2.47353C1.42077 2.63611 1.34859 2.7699 1.30409 2.88C1.25969 2.98978 1.22957 3.1064 1.26011 3.22631L1.55249 3.14319C1.54885 3.12891 1.54623 3.0954 1.58253 3.00563C1.61871 2.91615 1.68037 2.80092 1.77145 2.63145L1.50815 2.47353ZM1.59704 3.22401C1.57566 3.2017 1.56029 3.17382 1.55249 3.14319L1.26011 3.22631C1.28186 3.31171 1.32473 3.38946 1.38431 3.45161L1.59704 3.22401ZM3.30238 3.59633C3.48057 3.59643 3.62731 3.59674 3.7406 3.58318C3.85356 3.56967 3.96512 3.53948 4.04892 3.45123L3.83515 3.22471C3.82521 3.23518 3.79894 3.25431 3.70652 3.26536C3.61441 3.27639 3.48826 3.27658 3.30253 3.27647L3.30238 3.59633ZM3.65817 2.63035C3.75001 2.80097 3.81218 2.91704 3.84862 3.00714C3.88517 3.09756 3.88243 3.13121 3.87872 3.14557L4.17079 3.2299C4.20198 3.10935 4.17174 2.99197 4.12705 2.88149C4.08226 2.7707 4.00949 2.63599 3.9214 2.47227L3.65817 2.63035ZM4.04892 3.45123C4.10711 3.38994 4.14913 3.31364 4.17079 3.2299L3.87872 3.14557C3.87097 3.17553 3.85594 3.2028 3.83515 3.22471L4.04892 3.45123ZM3.15106 0.32037C3.4548 0.320527 3.66534 0.321052 3.81673 0.34486C3.96549 0.368231 4.01823 0.408565 4.04625 0.454508L4.30075 0.281246C4.20254 0.120227 4.04281 0.0570047 3.86128 0.028477C3.68241 0.000374469 3.4449 0.000667111 3.15122 0.000516341L3.15106 0.32037ZM4.06746 1.50265C4.18876 1.22025 4.28725 0.991996 4.33699 0.808391C4.38746 0.622056 4.39899 0.442295 4.30075 0.281246L4.04625 0.454508C4.07426 0.500421 4.08722 0.56776 4.04588 0.720395C4.0038 0.875759 3.9172 1.07839 3.79174 1.37046L4.06746 1.50265ZM2.2709 3.08149e-05C1.97504 -0.000125994 1.73587 -0.000679178 1.55594 0.0274188C1.37345 0.0559269 1.21276 0.119371 1.11467 0.281664L1.36986 0.453807C1.39765 0.407834 1.45032 0.367251 1.60021 0.343843C1.75264 0.32004 1.96481 0.319727 2.27075 0.319885L2.2709 3.08149e-05ZM1.63362 1.37415C1.50488 1.08084 1.41594 0.877242 1.3723 0.721036C1.32937 0.567425 1.34207 0.499783 1.36986 0.453807L1.11467 0.281664C1.01659 0.443937 1.02967 0.624667 1.0819 0.811596C1.13342 0.995939 1.23443 1.22505 1.35894 1.50871L1.63362 1.37415ZM2.85904 4.84L2.85836 3.43604L2.55558 3.43621L2.55625 4.84015L2.85904 4.84Z" fill="black"/>
</svg>
